<svg id="Layer_3" data-name="Layer 3" xmlns="http://www.w3.org/2000/svg" viewBox="0 0 335.38 514"><defs><style>.cls-1{fill:none;}.cls-2{fill:#1288be;}.cls-3{fill:#429fbf;}.cls-4{fill:#1776b3;}.cls-5,.cls-6{fill:#368eb2;}.cls-6{opacity:0.01;isolation:isolate;}.cls-7{fill:#e5df00;}</style></defs><title>btn_excecution_new</title><path class="cls-1" d="M230.49,87.42l-3.74-1.84a15.82,15.82,0,0,1-7.61-8.12h0a15.84,15.84,0,0,1-.38-11.16l1.34-4a6.55,6.55,0,0,0-1.58-6.79l-7.26-7.26a6.55,6.55,0,0,0-4.67-1.94,6.64,6.64,0,0,0-2.12.35l-4,1.34a15.81,15.81,0,0,1-11.15-.37h-.09a15.8,15.8,0,0,1-8.1-7.6l-1.84-3.74a6.55,6.55,0,0,0-5.92-3.68H163.15a6.58,6.58,0,0,0-5.93,3.68L155.38,40a15.84,15.84,0,0,1-8.12,7.6h-.07a15.78,15.78,0,0,1-11.14.37l-4-1.34a6.59,6.59,0,0,0-6.79,1.59L118,55.48a6.55,6.55,0,0,0-1.58,6.79l1.34,4a15.84,15.84,0,0,1-.37,11.14v.07a15.82,15.82,0,0,1-7.61,8.12L106,87.44a6.55,6.55,0,0,0-3.68,5.92v10.27a6.55,6.55,0,0,0,3.68,5.92l3.74,1.84a15.84,15.84,0,0,1,7.61,8.11v.07a15.81,15.81,0,0,1,.38,11.15l-1.34,3.94a6.56,6.56,0,0,0,1.58,6.8l7.26,7.26a6.56,6.56,0,0,0,4.67,1.93,6.64,6.64,0,0,0,2.12-.35l4-1.34a15.92,15.92,0,0,1,9.17-.3v-.11l3.88,1.6v.11a16,16,0,0,1,6.28,6.71l1.84,3.73a6.56,6.56,0,0,0,5.93,3.69h10.26a6.54,6.54,0,0,0,5.92-3.69l1.84-3.73a15.82,15.82,0,0,1,8.12-7.61h.06a15.68,15.68,0,0,1,6.08-1.22,16,16,0,0,1,5.08.84l3.94,1.34a6.64,6.64,0,0,0,2.12.35,6.56,6.56,0,0,0,4.67-1.93l7.26-7.26a6.56,6.56,0,0,0,1.58-6.8l-1.34-3.94a15.88,15.88,0,0,1-.3-9.16l-.11,0,.76-1.87,1.32.48-1.3-.54.81-1.93.12,0a15.84,15.84,0,0,1,6.71-6.31l3.74-1.84a6.55,6.55,0,0,0,3.68-5.92V93.34A6.56,6.56,0,0,0,230.49,87.42Zm-62.21,52a41,41,0,1,1,41-41,41,41,0,0,1-41,41h0Z"/><path class="cls-1" d="M168.28,66.68a31.8,31.8,0,1,0,31.79,31.81v0A31.82,31.82,0,0,0,168.28,66.68Z"/><path class="cls-2" d="M234.55,79.17l-3.73-1.84a6.54,6.54,0,0,1-3.18-3.39v-.08a6.62,6.62,0,0,1-.16-4.66l1.34-3.94A15.71,15.71,0,0,0,225,49l-7.25-7.25A15.8,15.8,0,0,0,201.49,38l-3.94,1.34a6.59,6.59,0,0,1-4.65-.15h-.09A6.59,6.59,0,0,1,189.42,36l-1.84-3.74a15.7,15.7,0,0,0-14.17-8.82H163.15A15.69,15.69,0,0,0,149,32.2l-1.84,3.74a6.59,6.59,0,0,1-3.39,3.17h-.08a6.54,6.54,0,0,1-4.65.16l-4-1.27a15.77,15.77,0,0,0-16.25,3.79L111.55,49a15.7,15.7,0,0,0-3.79,16.26l1.34,3.94a6.62,6.62,0,0,1-.15,4.66v.08a6.54,6.54,0,0,1-3.18,3.39L102,79.17a15.7,15.7,0,0,0-8.82,14.17v10.27A15.7,15.7,0,0,0,102,117.78l3.73,1.84a6.54,6.54,0,0,1,3.18,3.39v.08a6.62,6.62,0,0,1,.15,4.66l-1.34,3.94a15.69,15.69,0,0,0,3.79,16.25l7.26,7.26a15.78,15.78,0,0,0,16.29,3.8l3.95-1.34a6.62,6.62,0,0,1,4.64.15h.09a6.59,6.59,0,0,1,3.39,3.17l1.84,3.74a15.71,15.71,0,0,0,14.18,8.81h10.26a15.71,15.71,0,0,0,14.17-8.81l1.84-3.74a6.75,6.75,0,0,1,3.47-3.21,6.59,6.59,0,0,1,4.65-.15l4,1.34a15.79,15.79,0,0,0,16.26-3.79l7.25-7.26a15.69,15.69,0,0,0,3.79-16.25l-1.34-3.94a6.68,6.68,0,0,1,.14-4.64V123a6.54,6.54,0,0,1,3.18-3.39l3.73-1.84a15.7,15.7,0,0,0,8.82-14.17V93.34A15.7,15.7,0,0,0,234.55,79.17Zm-.38,24.44a6.55,6.55,0,0,1-3.68,5.92l-3.74,1.84a15.84,15.84,0,0,0-6.71,6.31l-.12-.05-.81,1.93,1.3.54-1.32-.48-.76,1.87.11.05a15.88,15.88,0,0,0,.3,9.16l1.34,3.94a6.56,6.56,0,0,1-1.58,6.8l-7.26,7.26a6.56,6.56,0,0,1-4.67,1.93,6.64,6.64,0,0,1-2.12-.35l-3.94-1.34a16,16,0,0,0-5.08-.84,15.68,15.68,0,0,0-6.08,1.22h-.06a15.82,15.82,0,0,0-8.12,7.61l-1.84,3.73a6.54,6.54,0,0,1-5.92,3.69H163.15a6.56,6.56,0,0,1-5.93-3.69L155.38,157a16,16,0,0,0-6.28-6.71v-.11l-3.88-1.6v.11a15.92,15.92,0,0,0-9.17.3l-4,1.34a6.64,6.64,0,0,1-2.12.35,6.56,6.56,0,0,1-4.67-1.93L118,141.49a6.56,6.56,0,0,1-1.58-6.8l1.34-3.94a15.81,15.81,0,0,0-.38-11.15v-.07a15.84,15.84,0,0,0-7.61-8.11L106,109.58a6.55,6.55,0,0,1-3.68-5.92V93.34A6.55,6.55,0,0,1,106,87.42l3.74-1.84a15.82,15.82,0,0,0,7.61-8.12v-.07a15.84,15.84,0,0,0,.37-11.14l-1.34-4A6.55,6.55,0,0,1,118,55.46l7.26-7.26A6.54,6.54,0,0,1,130,46.31a6.64,6.64,0,0,1,2.12.35l4,1.34a15.78,15.78,0,0,0,11.14-.37h.07a15.84,15.84,0,0,0,8.12-7.6l1.84-3.74a6.58,6.58,0,0,1,5.93-3.68h10.26a6.55,6.55,0,0,1,5.92,3.68L181.17,40a15.8,15.8,0,0,0,8.1,7.6h.09a15.81,15.81,0,0,0,11.15.37l3.94-1.34a6.64,6.64,0,0,1,2.12-.35,6.55,6.55,0,0,1,4.67,1.94l7.26,7.26a6.55,6.55,0,0,1,1.58,6.79l-1.34,4a15.84,15.84,0,0,0,.38,11.16h0a15.82,15.82,0,0,0,7.61,8.12l3.74,1.84a6.55,6.55,0,0,1,3.68,5.92Z"/><path class="cls-3" d="M168.28,57.48a41,41,0,1,0,41,41h0A41,41,0,0,0,168.28,57.48Zm0,72.79a31.8,31.8,0,1,1,31.79-31.81h0A31.84,31.84,0,0,1,168.28,130.27Z"/><path class="cls-4" d="M14.12,234.88V195.25H38.63v6.55H21.43v10.3H36.5v6.5H21.43v9.72H39.2v6.56Z"/><path class="cls-4" d="M78,195.25,65.55,213.71l13.8,21.17H70.61l-9.44-15.24-9.43,15.24H43.05L56.8,213.71,44.38,195.25h8.8l8,12.59,8-12.59Z"/><path class="cls-4" d="M85.28,234.88V195.25h24.5v6.55H92.58v10.3h15.07v6.5H92.58v9.72h17.78v6.56Z"/><path class="cls-4" d="M145.91,223.15l5.81,4.25a18.75,18.75,0,0,1-6.85,5.9,20.1,20.1,0,0,1-9.26,2.16,19,19,0,0,1-14.18-6,20.83,20.83,0,0,1,0-28.79,19,19,0,0,1,14.18-5.92,20,20,0,0,1,9.12,2.1,18.57,18.57,0,0,1,6.81,5.72l-5.86,4.2a12.19,12.19,0,0,0-10.07-5.06,11.77,11.77,0,0,0-9,3.91,14.2,14.2,0,0,0,0,19,11.8,11.8,0,0,0,9,3.89,12.14,12.14,0,0,0,5.81-1.44A12.93,12.93,0,0,0,145.91,223.15Z"/><path class="cls-4" d="M167.88,226.37a7.51,7.51,0,0,0,5.35,2.13,7.6,7.6,0,0,0,5.38-2.13,7.15,7.15,0,0,0,2.27-5.47V195.25h7.36V220.9a13.6,13.6,0,0,1-4.4,10.5,16,16,0,0,1-21.28,0,13.6,13.6,0,0,1-4.4-10.5V195.25h7.48V220.9A7.19,7.19,0,0,0,167.88,226.37Z"/><path class="cls-4" d="M195,202v-6.73h29.74V202H213.61v32.9h-7.42V202Z"/><path class="cls-4" d="M232,234.88V195.25h7.31v39.63Z"/><path class="cls-4" d="M247.38,215.15a19.87,19.87,0,0,1,5.81-14.41,20.11,20.11,0,0,1,28.44-.12l.12.12a20.6,20.6,0,0,1,0,28.76,20,20,0,0,1-28.28.22l-.22-.22A19.76,19.76,0,0,1,247.38,215.15Zm11-9.29a13.44,13.44,0,0,0,0,18.55,12.7,12.7,0,0,0,18,.16l.16-.16a13.44,13.44,0,0,0,0-18.55,12.65,12.65,0,0,0-17.89-.23C258.53,205.7,258.46,205.78,258.38,205.86Z"/><path class="cls-4" d="M325,195.25v39.63h-6.7L303,208.82v26.06h-7.3V195.25h6.84L317.67,221V195.25Z"/><path class="cls-5" d="M87.6,272.12h5.34c4.17,0,7.64,1.46,7.64,6.09s-3.53,6.13-7.2,6.13H90.52v8.13H87.6Zm2.92,9.65h2.89c1.8,0,4.08-.9,4.08-3.58s-2.68-3.5-4.49-3.5H90.52Z"/><path class="cls-5" d="M110.14,272.12h3.07l8.6,20.35h-3.18l-2.07-5.13h-10l-2.07,5.13h-3.07Zm1.43,2.74-4,10.09h8.11Z"/><path class="cls-5" d="M139.59,275.47a8.15,8.15,0,0,0-4.2-1.13c-4.69,0-7.81,3.38-7.81,8a7.59,7.59,0,0,0,7.17,8h.5a10,10,0,0,0,4.43-1l.17,2.82a12.55,12.55,0,0,1-4.63.73c-6.45,0-10.73-4.14-10.73-10.61,0-6.27,4.55-10.44,10.76-10.44a11.26,11.26,0,0,1,4.58.88Z"/><path class="cls-5" d="M144.28,272.12h2.92v8.95l8.69-8.95h3.88l-9.57,9.62,10.33,10.73h-4.26l-9.07-10v10h-2.92Z"/><path class="cls-5" d="M170.82,272.12h3.06l8.6,20.35H179.3l-2.07-5.13h-10l-2.07,5.13H162.1Zm1.43,2.74L168.19,285h8.11Z"/><path class="cls-5" d="M201.67,275.74a9.28,9.28,0,0,0-5.6-1.4,8,8,0,0,0-.15,15.92,12,12,0,0,0,3.27-.35v-6.18H194.9v-2.39h7.2v10.58a18.4,18.4,0,0,1-6.21.9c-6.44,0-10.73-4.14-10.73-10.61,0-6.27,4.55-10.44,10.76-10.44a15.34,15.34,0,0,1,6,1Z"/><path class="cls-5" d="M208.05,272.12H211v20.35h-2.91Z"/><path class="cls-5" d="M216.91,272.12h4l9,16.39H230V272.12h2.91v20.35H229.1l-9.21-16.73h-.06v16.73h-2.92Z"/><path class="cls-5" d="M254.23,275.74a9.28,9.28,0,0,0-5.6-1.4,8,8,0,0,0-.14,15.92,11.94,11.94,0,0,0,3.26-.35v-6.18h-4.28v-2.39h7.2v10.58a18.4,18.4,0,0,1-6.21.9c-6.44,0-10.73-4.14-10.73-10.61,0-6.27,4.55-10.44,10.76-10.44a15.34,15.34,0,0,1,6,1Z"/><path class="cls-5" d="M86.45,322.11h4.81L97.65,339l6.27-16.91h4.81v20.35h-2.92V324.85h0L99,342.46H96.16l-6.73-17.61h-.06v17.61H86.45Z"/><path class="cls-5" d="M121.18,322.11h3.06l8.6,20.35h-3.18l-2.07-5.13h-10l-2.07,5.13h-3.06Zm1.43,2.74-4.06,10.09h8.11Z"/><path class="cls-5" d="M136.4,322.11h5c4,0,7.91.64,7.91,5.51a4.75,4.75,0,0,1-4.2,4.64v.05a3.46,3.46,0,0,1,2,2l3.85,8.11h-3.33l-3.12-7.06c-.9-2-1.86-2-3.41-2h-1.75v9H136.4Zm2.91,8.75h2.48c2.77,0,4.4-1.23,4.4-3.18s-1.4-3-4.08-3h-2.8Z"/><path class="cls-5" d="M155.32,322.11h2.92v8.95l8.68-8.95h3.88l-9.56,9.62,10.32,10.73H167.3l-9.06-10v10h-2.92Z"/><path class="cls-5" d="M175.55,322.11H187v2.56h-8.49v5.95h7.73v2.57h-7.73v6.7H187v2.57H175.55Z"/><path class="cls-5" d="M196.46,324.67h-6.33v-2.56H205.7v2.56h-6.32v17.79h-2.92Z"/><path class="cls-5" d="M209.4,322.11h2.92v20.35H209.4Z"/><path class="cls-5" d="M218.27,322.11h4l9,16.39h.06V322.11h2.92v20.35h-3.73l-9.22-16.74h-.06v16.74h-2.91Z"/><path class="cls-5" d="M255.59,325.72a9.42,9.42,0,0,0-5.6-1.4,8,8,0,0,0-.14,15.93,11.18,11.18,0,0,0,3.26-.36v-6.18h-4.28v-2.39H256v10.59a18.66,18.66,0,0,1-6.21.9c-6.45,0-10.73-4.14-10.73-10.61,0-6.27,4.54-10.44,10.76-10.44a15.34,15.34,0,0,1,6,1Z"/><path class="cls-5" d="M91.51,360.1h5.34c4.17,0,7.64,1.46,7.64,6.09s-3.53,6.13-7.21,6.13H94.43v8.13H91.51Zm2.92,9.65h2.88c1.81,0,4.09-.9,4.09-3.59s-2.69-3.49-4.49-3.49H94.43Z"/><path class="cls-5" d="M108.51,360.1h5c4,0,7.9.64,7.9,5.51a4.75,4.75,0,0,1-4.2,4.64v.05c.9.35,1.34.79,2,2.05l3.85,8.1h-3.32l-3.12-7.05c-.91-2-1.87-2-3.42-2h-1.75v9h-2.91Zm2.91,8.75h2.48c2.77,0,4.41-1.23,4.41-3.18s-1.4-3-4.09-3h-2.8Z"/><path class="cls-5" d="M136,359.75c6.18,0,9.8,4.49,9.8,10.53s-3.59,10.52-9.8,10.52-9.79-4.34-9.79-10.52S129.85,359.75,136,359.75Zm0,18.49c4.7,0,6.71-3.91,6.71-8s-2.22-8-6.71-8-6.7,3.82-6.7,8S131.34,378.24,136,378.24Z"/><path class="cls-5" d="M166.21,363.71a9.42,9.42,0,0,0-5.6-1.4c-4.69,0-7.81,3.42-7.81,8a7.59,7.59,0,0,0,7.17,8h.5a11.94,11.94,0,0,0,3.26-.35V371.7h-4.28v-2.39h7.2V379.9a18.4,18.4,0,0,1-6.21.9c-6.45,0-10.73-4.14-10.73-10.61,0-6.27,4.55-10.44,10.76-10.44a15.34,15.34,0,0,1,6,1Z"/><path class="cls-5" d="M172.42,360.1h5c4,0,7.9.64,7.9,5.51a4.75,4.75,0,0,1-4.2,4.64v.05c.9.35,1.34.79,2,2.05l3.85,8.1h-3.32l-3.12-7.05c-.91-2-1.87-2-3.41-2h-1.75v9h-2.92Zm2.92,8.75h2.47c2.77,0,4.41-1.23,4.41-3.18s-1.4-3-4.08-3h-2.8Z"/><path class="cls-5" d="M197.64,360.1h3.06l8.6,20.35h-3.17l-2.07-5.13h-10L192,380.45h-3Zm1.43,2.74-4,10.09h8.1Z"/><path class="cls-5" d="M213.06,360.1h4.82l6.38,16.9,6.27-16.91h4.81v20.35h-2.91v-17.6h-.06l-6.74,17.61h-2.86L216,362.84h0v17.61h-2.92Z"/><path class="cls-5" d="M250.59,363.16a9,9,0,0,0-3.82-.85c-1.63,0-3.56.59-3.56,2.72,0,3.9,8.75,3,8.75,9.71,0,4.34-3.35,6.06-7.44,6.06a13.87,13.87,0,0,1-4.17-.84l.3-2.72a12.34,12.34,0,0,0,4.22,1c1.67,0,4-.94,4-3.33,0-4.55-8.75-3.29-8.75-9.62,0-3.62,2.86-5.54,6.53-5.54a13.42,13.42,0,0,1,4.35.73Z"/><path class="cls-5" d="M120.64,410.09h6c6,0,10.85,3.73,10.85,10,0,6.82-4.14,10.35-10.85,10.35h-6Zm2.91,17.78h3.07c5,0,7.78-2.42,7.78-7.67,0-4.75-3.23-7.55-7.43-7.55h-3.42Z"/><path class="cls-5" d="M142.8,410.09h11.4v2.56h-8.49v6h7.73v2.57h-7.73v6.7h8.49v2.57H142.8Z"/><path class="cls-5" d="M168.89,413.15a8.7,8.7,0,0,0-3.82-.85c-1.63,0-3.56.59-3.56,2.71,0,3.91,8.75,3,8.75,9.71,0,4.35-3.35,6.07-7.43,6.07a13.53,13.53,0,0,1-4.17-.85l.29-2.71a12.34,12.34,0,0,0,4.23,1c1.66,0,4-.93,4-3.32,0-4.55-8.75-3.3-8.75-9.62,0-3.62,2.86-5.54,6.54-5.54a13.62,13.62,0,0,1,4.34.72Z"/><path class="cls-5" d="M175,410.09h2.92v20.35H175Z"/><path class="cls-5" d="M199.36,413.7a9.42,9.42,0,0,0-5.6-1.4,8,8,0,0,0-.14,15.92,11.53,11.53,0,0,0,3.26-.35v-6.18H192.6V419.3h7.2v10.59a18.69,18.69,0,0,1-6.21.9c-6.45,0-10.73-4.14-10.73-10.62,0-6.26,4.55-10.43,10.76-10.43a15.34,15.34,0,0,1,6,1Z"/><path class="cls-5" d="M205.72,410.09h4l9,16.38h.06V410.09h2.92v20.35H218l-9.22-16.74h-.06v16.74h-2.91Z"/><rect class="cls-6" width="335.38" height="514"/><path class="cls-7" d="M128.53,461a8.15,8.15,0,0,0-4.2-1.14c-4.69,0-7.81,3.39-7.81,8a7.58,7.58,0,0,0,7.66,8,10,10,0,0,0,4.44-1l.17,2.83a12.72,12.72,0,0,1-4.63.73c-6.45,0-10.74-4.14-10.74-10.61,0-6.27,4.55-10.44,10.76-10.44a11.25,11.25,0,0,1,4.58.87Z"/><path class="cls-7" d="M141,457.3c6.18,0,9.8,4.49,9.8,10.52,0,6.18-3.59,10.53-9.8,10.53s-9.8-4.35-9.8-10.53C131.24,461.79,134.86,457.3,141,457.3Zm0,18.48c4.69,0,6.71-3.9,6.71-8s-2.22-8-6.71-8-6.71,3.82-6.71,8S136.34,475.78,141,475.78Z"/><path class="cls-7" d="M155,457.65h4.81l6.38,16.91,6.27-16.91h4.81V478h-2.91V460.39h-.06L167.57,478h-2.85L158,460.39h-.06V478H155Z"/><path class="cls-7" d="M182.5,457.65h2.92V478H182.5Z"/><path class="cls-7" d="M190.58,457.65h4l9,16.38h.06V457.65h2.91V478h-3.73l-9.21-16.74h-.06V478h-2.92Z"/><path class="cls-7" d="M227.12,461.26a9.42,9.42,0,0,0-5.6-1.4,8,8,0,0,0-.15,15.92,11.66,11.66,0,0,0,3.27-.35v-6.18h-4.29v-2.39h7.2v10.59a18.49,18.49,0,0,1-6.21.9c-6.44,0-10.73-4.14-10.73-10.61,0-6.27,4.55-10.44,10.76-10.44a15.2,15.2,0,0,1,6,1Z"/><path class="cls-7" d="M136.66,495.7a9,9,0,0,0-3.82-.85c-1.63,0-3.55.59-3.55,2.72,0,3.9,8.75,3,8.75,9.71,0,4.34-3.36,6.06-7.44,6.06a13.81,13.81,0,0,1-4.17-.84l.29-2.72a12.29,12.29,0,0,0,4.23,1c1.66,0,4-.94,4-3.33,0-4.55-8.74-3.29-8.74-9.62,0-3.62,2.85-5.54,6.53-5.54a13.45,13.45,0,0,1,4.34.73Z"/><path class="cls-7" d="M150.75,492.29c6.18,0,9.8,4.49,9.8,10.53s-3.59,10.52-9.8,10.52S141,509,141,502.82,144.57,492.29,150.75,492.29Zm0,18.49c4.69,0,6.71-3.91,6.71-8s-2.22-8-6.71-8-6.71,3.82-6.71,8S146.05,510.78,150.75,510.78Z"/><path class="cls-7" d="M173.44,492.29c6.18,0,9.79,4.49,9.79,10.53s-3.58,10.52-9.79,10.52-9.8-4.34-9.8-10.52S167.25,492.29,173.44,492.29Zm0,18.49c4.69,0,6.7-3.91,6.7-8s-2.21-8-6.7-8-6.71,3.82-6.71,8S168.74,510.78,173.44,510.78Z"/><path class="cls-7" d="M187.34,492.64h4l9,16.39h.06V492.64h2.92V513h-3.74l-9.21-16.74h-.06V513h-2.92Z"/><path class="cls-7" d="M212.77,507.28h-2.51l-.38-14.64h3.27Zm-2.89,2.45h3.27V513h-3.27Z"/></svg>