<svg xmlns="http://www.w3.org/2000/svg" viewBox="0 0 335.38 452.17"><defs><style>.cls-1{fill:#429fbf;}.cls-2{fill:#1776b3;}.cls-3,.cls-4{fill:#368eb2;}.cls-4{opacity:0.01;}.cls-5{fill:#1288be;}</style></defs><title>btn_variety_new</title><g id="Layer_3" data-name="Layer 3"><path class="cls-1" d="M44.06,61.24c-4.66,0-7.65-.34-8,5l-.67,8.65h73.17l-.67-8.65c-.33-5.32-3.32-5-8-5V57.91H44.06Z"/><path class="cls-1" d="M238.52,84.21l24.54-39.79a4,4,0,0,1,5.21-1.12L290.2,56l-3.71,6.69-19-11.15L247.44,84.21Z"/><polygon class="cls-1" points="255.62 92.02 223.27 92.02 228.48 152.26 250.79 152.26 255.62 92.02"/><path class="cls-2" d="M44.71,198.85h7.75l7.81,28,7.82-28h7.75L63.66,239H57Z"/><path class="cls-2" d="M105.58,239l-3.67-9.74h-15L83.25,239H75.32l15-40.17h8l15,40.17Zm-11.19-31.6-5,15.33h10Z"/><path class="cls-2" d="M137.47,224.44,147.74,239h-9l-9.45-14.28h-3.09V239h-7.46V198.85h16.09q6.24,0,9.53,3.82a14.36,14.36,0,0,1,.7,17.4A11.16,11.16,0,0,1,137.47,224.44Zm-3-18.95h-8.28v12.6h8.05a5,5,0,0,0,4.2-1.87,6.89,6.89,0,0,0,1.45-4.37,7.32,7.32,0,0,0-1.4-4.4A4.65,4.65,0,0,0,134.5,205.49Z"/><path class="cls-2" d="M155.84,239V198.85h7.41V239Z"/><path class="cls-2" d="M173.57,239V198.85h24.84v6.64H181v10.44h15.28v6.59H181v9.85h18V239Z"/><path class="cls-2" d="M203.83,205.67v-6.82H234v6.82H222.66V239h-7.52V205.67Z"/><path class="cls-2" d="M258.46,239h-7.63V220.71l-15.4-21.86h8.86l10.33,15.45,10.43-15.45H274l-15.51,22Z"/><path class="cls-3" d="M44.54,271.28h4l9.11,16.63h.06V271.28h3v20.65H56.9l-9.34-17H47.5v17h-3Z"/><path class="cls-3" d="M66.61,271.28H78.18v2.6H69.57v6h7.84v2.6H69.57v6.81h8.61v2.6H66.61Z"/><path class="cls-3" d="M80.87,271.28h3.26L89.07,289h.06l4.4-17.69h4.21L102.2,289h.06l4.94-17.69h3.14L104,291.93h-3.82l-4.5-18.05h0l-4.53,18.05h-4Z"/><path class="cls-3" d="M131.2,270.92c6.27,0,9.94,4.56,9.94,10.68,0,6.28-3.64,10.68-9.94,10.68s-9.94-4.4-9.94-10.68C121.26,275.48,124.93,270.92,131.2,270.92Zm0,18.76c4.76,0,6.81-4,6.81-8.08s-2.25-8.1-6.81-8.07-6.8,3.87-6.8,8.07S126.44,289.68,131.2,289.68Z"/><path class="cls-3" d="M160.14,274.68a8.31,8.31,0,0,0-4.26-1.15c-4.77,0-7.93,3.43-7.93,8.07a7.7,7.7,0,0,0,7.78,8.08,10.08,10.08,0,0,0,4.5-1l.17,2.87a12.71,12.71,0,0,1-4.7.74c-6.54,0-10.89-4.2-10.89-10.77,0-6.36,4.62-10.59,10.92-10.59a11.38,11.38,0,0,1,4.64.89Z"/><path class="cls-3" d="M178.75,274.68a8.28,8.28,0,0,0-4.26-1.15c-4.77,0-7.93,3.43-7.93,8.07a7.7,7.7,0,0,0,7.78,8.08,10.08,10.08,0,0,0,4.5-1l.17,2.87a12.68,12.68,0,0,1-4.7.74c-6.54,0-10.89-4.2-10.89-10.77,0-6.36,4.62-10.59,10.92-10.59a11.38,11.38,0,0,1,4.64.89Z"/><path class="cls-3" d="M189.64,271.28h3.1l8.73,20.65h-3.22l-2.11-5.21H186l-2.1,5.21h-3.11Zm1.45,2.78L187,284.3h8.23Z"/><path class="cls-3" d="M214.37,274.38a9.12,9.12,0,0,0-3.87-.85c-1.66,0-3.62.59-3.62,2.75,0,4,8.88,3.05,8.88,9.85,0,4.41-3.4,6.15-7.54,6.15a13.9,13.9,0,0,1-4.23-.85l.29-2.76a12.41,12.41,0,0,0,4.29,1c1.69,0,4.06-.95,4.06-3.37,0-4.62-8.88-3.35-8.88-9.77,0-3.66,2.9-5.62,6.63-5.62a13.92,13.92,0,0,1,4.41.74Z"/><path class="cls-3" d="M220.32,271.28h3v20.65h-3Z"/><path class="cls-3" d="M238,270.92c6.27,0,9.94,4.56,9.94,10.68,0,6.28-3.64,10.68-9.94,10.68S228,287.88,228,281.6C228,275.48,231.68,270.92,238,270.92Zm0,18.76c4.77,0,6.81-4,6.81-8.08s-2.25-8.1-6.81-8.07-6.8,3.87-6.8,8.07S233.19,289.68,238,289.68Z"/><path class="cls-3" d="M252.6,271.28h4l9.12,16.63h.05V271.28h3v20.65H265l-9.35-17h-.06v17h-3Z"/><path class="cls-3" d="M283.9,274.38a9.12,9.12,0,0,0-3.87-.85c-1.66,0-3.61.59-3.61,2.75,0,4,8.87,3.05,8.87,9.85,0,4.41-3.4,6.15-7.54,6.15a13.9,13.9,0,0,1-4.23-.85l.29-2.76a12.41,12.41,0,0,0,4.29,1c1.69,0,4.06-.95,4.06-3.37,0-4.62-8.88-3.35-8.88-9.77,0-3.66,2.9-5.62,6.63-5.62a13.88,13.88,0,0,1,4.41.74Z"/><path class="cls-3" d="M293.58,270.92h2.6l-7.1,21.36h-2.6Z"/><path class="cls-3" d="M95.52,313.23a8.28,8.28,0,0,0-4.26-1.15c-4.77,0-7.93,3.43-7.93,8.08a7.69,7.69,0,0,0,7.78,8.07,10.22,10.22,0,0,0,4.5-1l.17,2.87a12.89,12.89,0,0,1-4.7.74c-6.54,0-10.89-4.21-10.89-10.77,0-6.36,4.62-10.6,10.92-10.6a11.38,11.38,0,0,1,4.64.89Z"/><path class="cls-3" d="M108.74,309.47c6.28,0,9.94,4.56,9.94,10.69s-3.64,10.68-9.94,10.68-9.94-4.41-9.94-10.68S102.47,309.47,108.74,309.47Zm0,18.76c4.77,0,6.81-4,6.81-8.07s-2.25-8.11-6.81-8.08-6.8,3.87-6.8,8.08S104,328.23,108.74,328.23Z"/><path class="cls-3" d="M123.39,309.83h4l9.12,16.63h.05V309.83h3v20.65h-3.78l-9.35-17h-.06v17h-3Z"/><path class="cls-3" d="M154.69,312.94a9,9,0,0,0-3.87-.86c-1.66,0-3.61.59-3.61,2.75,0,4,8.87,3.05,8.87,9.85,0,4.41-3.4,6.16-7.54,6.16a13.91,13.91,0,0,1-4.23-.86l.29-2.75a12.65,12.65,0,0,0,4.29,1c1.69,0,4.06-.94,4.06-3.37,0-4.62-8.88-3.34-8.88-9.76,0-3.67,2.9-5.63,6.63-5.63a13.88,13.88,0,0,1,4.41.74Z"/><path class="cls-3" d="M176.71,321.93c0,5.8-2.93,8.91-8,8.91s-8-3.11-8-8.91v-12.1h3v11.72c0,4,1.24,6.68,5.06,6.68s5.06-2.72,5.06-6.68V309.83h3Z"/><path class="cls-3" d="M182.56,309.83h4.89L193.93,327l6.36-17.16h4.88v20.65h-3V312.61h-.06l-6.83,17.87h-2.9l-6.84-17.87h-.06v17.87h-3Z"/><path class="cls-3" d="M211.15,309.83h11.56v2.6h-8.6v6H222v2.6h-7.84v6.81h8.6v2.6H211.15Z"/><path class="cls-3" d="M227.8,309.83h5.06c4.09,0,8,.65,8,5.59a4.81,4.81,0,0,1-4.26,4.71v.06c.92.35,1.36.79,2,2.07l3.91,8.22h-3.37L236,323.32c-.92-2-1.89-2-3.46-2h-1.78v9.17h-3Zm3,8.88h2.52c2.81,0,4.47-1.25,4.47-3.23s-1.42-3.05-4.15-3.05h-2.84Z"/><path class="cls-3" d="M256,312.94a9,9,0,0,0-3.87-.86c-1.66,0-3.61.59-3.61,2.75,0,4,8.87,3.05,8.87,9.85,0,4.41-3.4,6.16-7.54,6.16a13.91,13.91,0,0,1-4.23-.86l.29-2.75a12.65,12.65,0,0,0,4.29,1c1.69,0,4.06-.94,4.06-3.37,0-4.62-8.88-3.34-8.88-9.76,0-3.67,2.9-5.63,6.63-5.63a13.92,13.92,0,0,1,4.41.74Z"/><path class="cls-3" d="M104.9,360.56h5.41c4.23,0,7.75,1.48,7.75,6.18s-3.58,6.21-7.31,6.21h-2.89v8.26h-3Zm3,9.79h2.92c1.84,0,4.15-.92,4.15-3.64s-2.73-3.55-4.56-3.55h-2.51Z"/><path class="cls-3" d="M127.5,360.56h3.11l8.73,20.65h-3.23L134,376H123.89l-2.1,5.21h-3.1Zm1.45,2.78-4.11,10.24h8.22Z"/><path class="cls-3" d="M142.86,360.56h3v20.65h-3Z"/><path class="cls-3" d="M151.44,360.56h5.06c4.08,0,8,.65,8,5.59a4.81,4.81,0,0,1-4.26,4.7v.06a3.49,3.49,0,0,1,2,2.07l3.9,8.23H162.8l-3.17-7.16c-.91-2-1.89-2-3.46-2H154.4v9.17h-3Zm3,8.87h2.51c2.81,0,4.47-1.24,4.47-3.22s-1.42-3-4.14-3H154.4Z"/><path class="cls-3" d="M170.23,360.56h3v20.65h-3Z"/><path class="cls-3" d="M179,360.56h4l9.11,16.63h.06V360.56h3v20.65h-3.79l-9.35-17h-.06v17H179Z"/><path class="cls-3" d="M216.56,364.23a9.5,9.5,0,0,0-5.68-1.42,8.08,8.08,0,0,0-.15,16.15,12.43,12.43,0,0,0,3.32-.35v-6.28H209.7v-2.42H217v10.74a18.93,18.93,0,0,1-6.3.91c-6.54,0-10.89-4.2-10.89-10.77,0-6.36,4.62-10.59,10.92-10.59a15.61,15.61,0,0,1,6.07,1Z"/><path class="cls-3" d="M232.15,363.66a9.09,9.09,0,0,0-3.87-.85c-1.66,0-3.61.59-3.61,2.75,0,4,8.87,3.05,8.87,9.85,0,4.41-3.4,6.15-7.54,6.15a13.9,13.9,0,0,1-4.23-.85l.29-2.76a12.41,12.41,0,0,0,4.29,1c1.69,0,4.06-.95,4.06-3.37,0-4.62-8.88-3.35-8.88-9.77,0-3.66,2.9-5.62,6.63-5.62a13.88,13.88,0,0,1,4.41.74Z"/><path class="cls-3" d="M99.67,411.28h5.42c4.23,0,7.75,1.48,7.75,6.19s-3.58,6.21-7.31,6.21h-2.9v8.26h-3Zm3,9.8h2.93c1.84,0,4.14-.92,4.14-3.64s-2.72-3.55-4.55-3.55h-2.52Z"/><path class="cls-3" d="M122.28,411.28h3.11l8.72,20.66h-3.22l-2.1-5.21H118.67l-2.1,5.21h-3.11Zm1.45,2.79-4.11,10.23h8.22Z"/><path class="cls-3" d="M151.9,414.69a8.32,8.32,0,0,0-4.26-1.16c-4.77,0-7.93,3.43-7.93,8.08a7.7,7.7,0,0,0,7.78,8.08,10.22,10.22,0,0,0,4.5-1l.17,2.87a12.92,12.92,0,0,1-4.7.74c-6.54,0-10.89-4.2-10.89-10.77,0-6.36,4.62-10.59,10.92-10.59a11.38,11.38,0,0,1,4.64.89Z"/><path class="cls-3" d="M156.39,411.28h3v9.09l8.82-9.09h3.93l-9.7,9.77,10.47,10.89h-4.32l-9.2-10.12v10.12h-3Z"/><path class="cls-3" d="M194.65,414.39a9.13,9.13,0,0,0-3.87-.86c-1.66,0-3.61.59-3.61,2.75,0,4,8.87,3.05,8.87,9.86,0,4.41-3.4,6.15-7.54,6.15a13.62,13.62,0,0,1-4.23-.86l.29-2.75a12.65,12.65,0,0,0,4.29,1c1.69,0,4.06-.95,4.06-3.38,0-4.61-8.88-3.34-8.88-9.76,0-3.67,2.9-5.62,6.63-5.62a13.92,13.92,0,0,1,4.41.74Z"/><path class="cls-3" d="M200.6,411.28h3v20.66h-3Z"/><path class="cls-3" d="M207.67,429.27l10.71-15.38H208v-2.61h13.75V414L211.1,429.33H222v2.61H207.67Z"/><path class="cls-3" d="M226.49,411.28h11.57v2.61h-8.61v6h7.84v2.61h-7.84v6.8h8.61v2.61H226.49Z"/><rect class="cls-4" width="335.38" height="452.17"/></g><g id="graphics"><path class="cls-5" d="M93.61,26.32l-6.32-2-8,29.6h7Zm10,52.54H40.4L47.72,167H96.27Z"/><path class="cls-5" d="M184.21,35.45a1.32,1.32,0,0,1,1-.13l8.58,2.34,2.89-10.56-8.58-2.34A12.33,12.33,0,0,0,173,33.39l-4.91,18H130.61a5.48,5.48,0,0,0-5.47,5.83L132,161.87a5.46,5.46,0,0,0,5.46,5.12H178.5a5.47,5.47,0,0,0,5.46-5.12l6.85-104.68a5.48,5.48,0,0,0-5.47-5.83h-5.89l4.12-15.08A1.36,1.36,0,0,1,184.21,35.45ZM165.1,62.31l-6.26,22.92h-9.35l3,62.47L147,148l-3-62.73H138l-1.5-22.92Zm14.4,0L178,85.23h-7.81l6.26-22.92Z"/><path class="cls-5" d="M213.6,65.24,221,156a4.56,4.56,0,0,0,1.49,3,2.25,2.25,0,0,0,2.23,1.12h29.37a3.41,3.41,0,0,0,2.61-1.12,4.23,4.23,0,0,0,1.11-3l7.81-90.74,7.44.38-7.44,90.73c-.37,3-1.49,6-3.72,7.81a9.6,9.6,0,0,1-7.81,3.34H224.76a10.69,10.69,0,0,1-7.81-3.34,11.61,11.61,0,0,1-3.35-7.81l-7.81-90.73Z"/></g></svg>