<?xml version="1.0" encoding="utf-8"?>
<!-- Generator: Adobe Illustrator 19.0.0, SVG Export Plug-In . SVG Version: 6.00 Build 0)  -->
<svg version="1.1" id="Layer_1" xmlns="http://www.w3.org/2000/svg" xmlns:xlink="http://www.w3.org/1999/xlink" x="0px" y="0px"
	 viewBox="0 0 84.3 64" style="enable-background:new 0 0 84.3 64;" xml:space="preserve">
<style type="text/css">
	.st0{fill:#BAC9D9;}
	.st1{fill:#FFFFFF;}
</style>
<path class="st0" d="M68.3,12.7C67,10.9,65.1,9.4,63,8.5c-1.1-2.1-2.8-4.3-3.7-5.2c-1.3-1.2-3-1.9-4.9-1.9c-4,0-7.3,3.3-7.3,7.3
	c0,1.6-0.1,3,0.1,4.2c-0.8,1.1-1.4,2.4-1.8,3.8c-0.8-0.6-1.9-1-3-1c-0.1,0-0.2,0-0.3,0c-0.1,0-0.2,0-0.3,0c-1.1,0-2.1,0.4-3,1
	c-0.4-1.4-1-2.6-1.8-3.8c0.2-1.2,0.1-2.6,0.1-4.2c0-4-3.3-7.3-7.3-7.3c-1.9,0-3.6,0.7-4.9,1.9c-0.9,0.8-2.6,3.1-3.7,5.2
	c-2.1,0.9-3.9,2.4-5.3,4.2c-1.6,2.2-9.3,12.8-9.3,15.7c0,7.2,4.6-6.1,11.8-6.1c2.5,0,5.9,0.7,9.2,1.2c0,0,7.1,6.4,9.6,15.5
	c-0.3,0.6-0.4,1.3-0.4,2c0,2.7,2.2,5,5,5c0.1,0,0.2,0,0.3,0c0.1,0,0.2,0,0.3,0c2.7,0,5-2.2,5-5c0-0.7-0.2-1.4-0.4-2
	c2.5-9.1,9.6-15.5,9.6-15.5c3.3-0.5,6.7-1.2,9.2-1.2c7.2,0,11.8,13.2,11.8,6.1C77.6,25.5,69.9,14.9,68.3,12.7z"/>
<path class="st1" d="M63.9,21.6c-10.4,0-19,7.8-20.3,17.9c-0.4-0.3-0.9-0.4-1.4-0.4c-0.5,0-1,0.2-1.4,0.4
	c-1.3-10.1-9.9-17.9-20.3-17.9C9.2,21.6,0,30.8,0,42.1s9.2,20.4,20.4,20.4c10.5,0,19.2-8,20.3-18.2c0.4,0.2,0.9,0.4,1.4,0.4
	s1-0.1,1.4-0.4c1.1,10.2,9.8,18.2,20.3,18.2c11.3,0,20.4-9.2,20.4-20.4S75.1,21.6,63.9,21.6z M20.4,55.8c-7.5,0-13.7-6.1-13.7-13.7
	s6.1-13.7,13.7-13.7s13.7,6.1,13.7,13.7S28,55.8,20.4,55.8z M63.9,55.8c-7.5,0-13.7-6.1-13.7-13.7s6.1-13.7,13.7-13.7
	s13.7,6.1,13.7,13.7S71.4,55.8,63.9,55.8z"/>
</svg>
