<?xml version="1.0" encoding="utf-8"?>
<!-- Generator: Adobe Illustrator 19.0.0, SVG Export Plug-In . SVG Version: 6.00 Build 0)  -->
<svg version="1.1" id="Layer_1" xmlns="http://www.w3.org/2000/svg" xmlns:xlink="http://www.w3.org/1999/xlink" x="0px" y="0px"
	 viewBox="0 0 132.8 107.2" style="enable-background:new 0 0 132.8 107.2;" xml:space="preserve">
<style type="text/css">
	.st0{fill:#BECCDB;}
	.st1{fill:#FFFFFF;}
</style>
<path class="st0" d="M97.2,7.1c0-7-26.2-7.1-27.3-7.1S42.5,0.1,42.5,7.1c0,1.3,1,2.4,2.5,3.3l5.3,79.3c0,2.7,8.7,4.9,19.5,4.9
	s19.5-2.2,19.5-4.9L95,10.2C96.3,9.4,97.2,8.4,97.2,7.1z M69.8,3c14.9,0,23.5,2.6,24.3,4.1c-0.8,1.5-9.4,4.1-24.3,4.1
	c-14.9,0-23.5-2.6-24.3-4.1C46.3,5.6,54.9,3,69.8,3z"/>
<path class="st1" d="M0,26.8c0,0,21.2-1.5,30-2.3c8.8-0.8,26-3.3,26-3.3v5.7l-3.5,12.8c0,0,2.5,2.2,2.7,4.5c0.2,2.3,3.3,35,3.3,35
	l-1.2,5.2c0,0,4,2.8,5,6.8s1.7,10,1.7,10l-55.2,6c0,0-0.5-9.8,0-12.3s2.3-7,2.3-7S9.8,87,9.3,83.2s-1-22.3-1.8-25s-1.2-7.7-1-9
	S6.7,44,7.2,44S1.3,35.2,0,26.8z"/>
<path class="st1" d="M131.7,38.2c0.9-5.8-2.1-14.3-7.3-16.9l0.5-3.3c1,0,1.6-0.1,1.7-0.3l0.2-7.7c0.1-0.5-2.6-1.3-5.9-1.8
	c-3.3-0.5-6.1-0.5-6.1,0l-2.1,7.5c0,0.2,0.7,0.6,1.8,0.9l-0.5,3.1c-5.9,0.7-11.4,8.2-12.3,14l-3,20.3c-0.4,3,0.3,5.8,1.8,8.2
	c-1,2.2-1.8,4.7-2.2,7.3c-0.4,2.7-0.4,5.3,0,7.7c-2.2,2.3-3.8,5.2-4.3,8.2L93.6,88c-0.4,2.9,1,5.6,2.5,7.7c1.2,1.8,1.6,3.3,4.2,3.9
	c0,0,2.6,0.4,4.2-0.7c1.7-1.1,2-1.5,3.3-1.3c1.3,0.2,2,1,3.1,2.6c1.1,1.7,3.8,1.5,3.8,1.5c2.2-0.3,3.3-1.7,4.9-3
	c1.8-1.6,3.6-3.4,4-6.1l0.4-2.5c0.4-2.8-0.1-5.9-1.4-8.6c1.2-2.3,2-5,2.4-7.8c0.4-2.8,0.4-5.5,0-8c1.9-1.8,3.3-4.2,3.7-7L131.7,38.2
	z"/>
</svg>
