<?xml version="1.0" encoding="utf-8"?>
<!-- Generator: Adobe Illustrator 19.0.0, SVG Export Plug-In . SVG Version: 6.00 Build 0)  -->
<svg version="1.1" id="Layer_1" xmlns="http://www.w3.org/2000/svg" xmlns:xlink="http://www.w3.org/1999/xlink" x="0px" y="0px"
	 viewBox="-245.2 381 39.7 32" style="enable-background:new -245.2 381 39.7 32;" xml:space="preserve">
<style type="text/css">
	.st0{fill:#4B81BA;}
	.st1{fill:#ADBED1;}
</style>
<path class="st0" d="M-215.9,383.1c0-2.1-7.9-2.1-8.3-2.1c-0.4,0-8.3,0.1-8.3,2.1c0,0.4,0.3,0.7,0.8,1l1.6,23.7
	c0,0.8,2.6,1.5,5.9,1.5c3.3,0,5.9-0.7,5.9-1.5l1.7-23.7C-216.1,383.8-215.9,383.5-215.9,383.1z M-224.2,381.9c4.5,0,7.1,0.8,7.3,1.2
	c-0.3,0.5-2.9,1.2-7.3,1.2c-4.5,0-7.1-0.8-7.3-1.2C-231.3,382.7-228.7,381.9-224.2,381.9z"/>
<path class="st1" d="M-245.3,389c0,0,6.4-0.5,9.1-0.7c2.7-0.3,7.8-1,7.8-1v1.7l-1.1,3.8c0,0,0.8,0.7,0.8,1.4c0.1,0.7,1,10.5,1,10.5
	l-0.4,1.6c0,0,1.2,0.9,1.5,2c0.3,1.2,0.5,3,0.5,3l-16.7,1.8c0,0-0.2-2.9,0-3.7c0.2-0.8,0.7-2.1,0.7-2.1s-0.4-0.3-0.6-1.4
	c-0.2-1.2-0.3-6.6-0.6-7.5c-0.3-0.8-0.4-2.3-0.3-2.7c0.1-0.4,0.1-1.6,0.2-1.6C-243,394.1-244.9,391.5-245.3,389z"/>
<path class="st1" d="M-205.5,392.4c0.3-1.7-0.7-4.3-2.2-5l0.2-1c0.3,0,0.5-0.1,0.5-0.1l0.1-2.3c0.1-0.2-0.8-0.4-1.8-0.6
	c-1-0.2-1.9-0.2-1.9,0l-0.7,2.3c0,0.1,0.2,0.2,0.6,0.3l-0.2,0.9c-1.8,0.2-3.5,2.5-3.7,4.2l-0.9,6.1c-0.1,0.9,0.1,1.7,0.6,2.5
	c-0.3,0.7-0.6,1.4-0.7,2.2c-0.1,0.8-0.1,1.6,0,2.3c-0.7,0.7-1.2,1.6-1.3,2.5l-0.1,0.8c-0.1,0.9,0.3,1.7,0.8,2.3
	c0.4,0.6,0.5,1,1.3,1.2c0,0,0.8,0.1,1.3-0.2c0.5-0.4,0.6-0.5,1-0.4c0.4,0.1,0.6,0.3,1,0.8c0.4,0.5,1.2,0.5,1.2,0.5
	c0.7-0.1,1-0.5,1.5-0.9c0.6-0.5,1.1-1,1.2-1.8l0.1-0.8c0.1-0.9-0.1-1.8-0.4-2.6c0.4-0.7,0.6-1.5,0.7-2.3c0.1-0.9,0.1-1.7,0-2.4
	c0.6-0.6,1-1.3,1.1-2.1L-205.5,392.4z"/>
</svg>
