<svg id="Layer_3" data-name="Layer 3" xmlns="http://www.w3.org/2000/svg" viewBox="0 0 335.38 452.17"><defs><style>.cls-1{fill:#1189be;}.cls-2{fill:#429fbf;}.cls-3{fill:#1776b3;}.cls-4,.cls-5{fill:#368eb2;}.cls-5{opacity:0.01;}</style></defs><title>btn_visibility_new</title><path class="cls-1" d="M94.24,62a49.64,49.64,0,1,0,49.63,49.63A49.63,49.63,0,0,0,94.24,62Zm0,86.71a37.08,37.08,0,1,1,37.08-37.08A37.09,37.09,0,0,1,94.24,148.72ZM242.34,62A49.64,49.64,0,1,0,292,111.64,49.63,49.63,0,0,0,242.34,62Zm0,86.71a37.08,37.08,0,1,1,37.09-37.08A37.08,37.08,0,0,1,242.34,148.72ZM168.29,47.64a5.81,5.81,0,1,0,5.81,5.81A5.81,5.81,0,0,0,168.29,47.64Zm0,17.13a11.38,11.38,0,1,1,11.38-11.38A11.38,11.38,0,0,1,168.28,64.77Z"/><path class="cls-2" d="M241.72,55.18c-5.08-5-11.33-10.57-17-14-11.18-6.71-21.32-4.48-26.95,1.92-5.49-2.78-12.16-3.71-19.59-4.37a17.64,17.64,0,0,0-19.86,0c-7.42.66-14.09,1.59-19.57,4.37-5.63-6.4-15.77-8.63-26.95-1.92-5.64,3.38-11.89,9-17,14a56.47,56.47,0,0,1,55.86,56.46,57.05,57.05,0,0,1-1,10.61c4.93-5,13-15.77,9.84-31.29A124.64,124.64,0,0,0,155,74.44c1.75-.8,4-3.78,5.93-5a17.54,17.54,0,0,0,14.81,0c1.95,1.25,4.18,4.23,5.94,5A123.15,123.15,0,0,0,177,91c-3.17,15.52,4.9,26.33,9.83,31.29a57.05,57.05,0,0,1-1-10.61A56.47,56.47,0,0,1,241.72,55.18Z"/><path class="cls-2" d="M107.94,83.47a30.29,30.29,0,0,0-44.56,26.72c0,.16,0,.32,0,.49v.19a2,2,0,0,0,1.86,1.95h.14a2,2,0,0,0,2-1.67A30.42,30.42,0,0,1,83,89.67a30.76,30.76,0,0,1,23.64-2.42,2.3,2.3,0,0,0,.64.09,2,2,0,0,0,.71-3.87Z"/><path class="cls-2" d="M255.7,83.47a30.29,30.29,0,0,0-44.56,26.72c0,.16,0,.32,0,.49v.19a2,2,0,0,0,1.86,1.95h.14a2,2,0,0,0,2-1.67,30.42,30.42,0,0,1,15.57-21.48,30.76,30.76,0,0,1,23.64-2.42,2.3,2.3,0,0,0,.64.09,2,2,0,0,0,.71-3.87Z"/><path class="cls-3" d="M32.86,201.29h7.72l7.77,27.84,7.77-27.84h7.72l-12.13,40H45Z"/><path class="cls-3" d="M70.57,241.26v-40h7.36v40Z"/><path class="cls-3" d="M86.11,229.6h7.43a5.5,5.5,0,0,0,2,4,7.15,7.15,0,0,0,4.93,1.65,7.58,7.58,0,0,0,4.7-1.36,4.5,4.5,0,0,0,1.91-3.45,4.1,4.1,0,0,0-1.24-3.31,9.83,9.83,0,0,0-4.27-2.14l-4.93-1.28q-10.1-3-10.09-11.14a10.51,10.51,0,0,1,3.91-8.44,14.4,14.4,0,0,1,9.55-3.28,14,14,0,0,1,9.54,3.28,11.13,11.13,0,0,1,3.74,8.79h-7.43a4.84,4.84,0,0,0-1.59-3.8,6.34,6.34,0,0,0-4.38-1.42A6.81,6.81,0,0,0,95.6,209a4.1,4.1,0,0,0-1.72,3.4q0,3.3,4.76,4.58l4.93,1.45q6.21,1.68,8.7,4.93a10.31,10.31,0,0,1,2.21,7.25,10.46,10.46,0,0,1-4.27,8.27,15.71,15.71,0,0,1-9.77,3,15.06,15.06,0,0,1-10.33-3.53A11.26,11.26,0,0,1,86.11,229.6Z"/><path class="cls-3" d="M122.42,241.26v-40h7.37v40Z"/><path class="cls-3" d="M167.44,212.14a8.94,8.94,0,0,1-1.25,4.61,7.52,7.52,0,0,1-4,3.16,9.17,9.17,0,0,1,5.45,3.65,9.71,9.71,0,0,1,2,5.69,11.77,11.77,0,0,1-3.39,8.53,12,12,0,0,1-9,3.48H140.29v-40H156a11.71,11.71,0,0,1,8.38,2.93A10.36,10.36,0,0,1,167.44,212.14Zm-19.72,5.22h7.71a3.89,3.89,0,0,0,3.13-1.37,5.09,5.09,0,0,0,1.16-3.45,4.67,4.67,0,0,0-1.19-3.39,4.38,4.38,0,0,0-3.33-1.25h-7.48Zm8.87,6.2h-8.87v11.08h9a4.54,4.54,0,0,0,3.69-1.65,5.87,5.87,0,0,0,1.36-3.86,6,6,0,0,0-1.39-3.86A4.68,4.68,0,0,0,156.59,223.56Z"/><path class="cls-3" d="M177.59,241.26v-40H185v40Z"/><path class="cls-3" d="M195.46,241.26v-40h7.42v33.35h15.43v6.62Z"/><path class="cls-3" d="M225.33,241.26v-40h7.37v40Z"/><path class="cls-3" d="M239.83,208.08v-6.79h30v6.79H258.57v33.18h-7.49V208.08Z"/><path class="cls-3" d="M294.42,241.26h-7.6V223L271.5,201.29h8.82l10.27,15.37L301,201.29h8.88l-15.43,21.87Z"/><path class="cls-4" d="M70.19,272H75l6.39,16.93L87.67,272h4.82v20.38H89.57V274.71h-.06l-6.74,17.63H79.91l-6.75-17.63H73.1v17.63H70.19Z"/><path class="cls-4" d="M98.58,272H110v2.57H101.5v6h7.74v2.57H101.5v6.71H110v2.57H98.58Z"/><path class="cls-4" d="M115.36,272h4l9,16.41h.06V272h2.92v20.38h-3.74l-9.22-16.76h-.06v16.76h-2.92Z"/><path class="cls-4" d="M153,283.9c0,5.72-2.89,8.79-7.91,8.79s-7.91-3.07-7.91-8.79V272h2.92v11.56c0,3.91,1.23,6.6,5,6.6s5-2.69,5-6.6V272H153Z"/><path class="cls-4" d="M167.66,272h6c6,0,10.86,3.74,10.86,10,0,6.83-4.15,10.36-10.86,10.36h-6Zm2.92,17.81h3.06c5,0,7.79-2.42,7.79-7.68,0-4.75-3.24-7.56-7.44-7.56h-3.41Z"/><path class="cls-4" d="M189.78,272h11.41v2.57H192.7v6h7.73v2.57H192.7v6.71h8.49v2.57H189.78Z"/><path class="cls-4" d="M215.84,275a9,9,0,0,0-3.82-.85c-1.64,0-3.56.59-3.56,2.72,0,3.91,8.75,3,8.75,9.72,0,4.35-3.35,6.07-7.44,6.07a13.53,13.53,0,0,1-4.17-.85l.29-2.71a12.3,12.3,0,0,0,4.23,1c1.66,0,4-.93,4-3.33,0-4.55-8.76-3.3-8.76-9.63,0-3.62,2.86-5.55,6.54-5.55a13.78,13.78,0,0,1,4.35.73Z"/><path class="cls-4" d="M221.91,272h2.92v20.38h-2.92Z"/><path class="cls-4" d="M246.22,275.58a9.4,9.4,0,0,0-5.6-1.4,8,8,0,0,0-.15,15.94,11.6,11.6,0,0,0,3.27-.35v-6.19h-4.29v-2.39h7.21v10.59a18.48,18.48,0,0,1-6.22.91c-6.45,0-10.74-4.15-10.74-10.63,0-6.27,4.55-10.45,10.77-10.45a15.26,15.26,0,0,1,6,1Z"/><path class="cls-4" d="M252.52,272h4l9,16.41h.06V272h2.92v20.38h-3.74l-9.22-16.76h-.06v16.76h-2.92Z"/><path class="cls-4" d="M53.2,322h3.07l8.61,20.37H61.7l-2.08-5.13h-10l-2.07,5.13H44.5Zm1.43,2.74-4.06,10.1h8.12Z"/><path class="cls-4" d="M68.38,322h5.34c4.17,0,7.64,1.46,7.64,6.1s-3.53,6.13-7.21,6.13H71.29v8.14H68.38Zm2.91,9.66h2.89c1.81,0,4.09-.9,4.09-3.59s-2.69-3.5-4.49-3.5H71.29Z"/><path class="cls-4" d="M85.33,322h5.34c4.18,0,7.65,1.46,7.65,6.1s-3.53,6.13-7.21,6.13H88.25v8.14H85.33Zm2.92,9.66h2.89c1.81,0,4.09-.9,4.09-3.59s-2.69-3.5-4.5-3.5H88.25Z"/><path class="cls-4" d="M102.61,322H114v2.57h-8.49v5.95h7.73v2.57h-7.73v6.71H114v2.57H102.61Z"/><path class="cls-4" d="M123.47,324.57h-6.33V322h15.59v2.57h-6.34v17.8h-2.92Z"/><path class="cls-4" d="M136.37,322h2.92v20.37h-2.92Z"/><path class="cls-4" d="M149.27,324.57h-6.33V322h15.59v2.57h-6.34v17.8h-2.92Z"/><path class="cls-4" d="M162.32,322h11.41v2.57h-8.49v5.95H173v2.57h-7.73v6.71h8.49v2.57H162.32Z"/><path class="cls-4" d="M194.42,322h3.07l8.61,20.37h-3.19l-2.07-5.13h-10l-2.07,5.13h-3.07Zm1.43,2.74-4.06,10.1h8.12Z"/><path class="cls-4" d="M209.59,322h5.35c4.17,0,7.64,1.46,7.64,6.1s-3.53,6.13-7.21,6.13h-2.86v8.14h-2.92Zm2.92,9.66h2.89c1.81,0,4.09-.9,4.09-3.59s-2.69-3.5-4.5-3.5h-2.48Z"/><path class="cls-4" d="M226.55,322h5.34c4.18,0,7.65,1.46,7.65,6.1s-3.53,6.13-7.21,6.13h-2.86v8.14h-2.92Zm2.92,9.66h2.89c1.81,0,4.09-.9,4.09-3.59s-2.69-3.5-4.5-3.5h-2.48Z"/><path class="cls-4" d="M243.83,322h11.41v2.57h-8.49v5.95h7.73v2.57h-7.73v6.71h8.49v2.57H243.83Z"/><path class="cls-4" d="M267.09,322h3.06l8.61,20.37h-3.18l-2.07-5.13h-10l-2.08,5.13h-3.06Zm1.43,2.74-4.06,10.1h8.12Z"/><path class="cls-4" d="M282.41,322h2.92v17.8h8.52v2.57H282.41Z"/><path class="cls-4" d="M103.85,372h5.34c4.17,0,7.65,1.46,7.65,6.1s-3.54,6.13-7.21,6.13h-2.86v8.15h-2.92Zm2.92,9.66h2.89c1.81,0,4.08-.9,4.08-3.59s-2.68-3.5-4.49-3.5h-2.48Z"/><path class="cls-4" d="M120.8,372h5c4,0,7.92.64,7.92,5.52a4.75,4.75,0,0,1-4.21,4.64v.06c.91.35,1.34.79,2,2l3.85,8.12H132l-3.12-7.07c-.91-2-1.87-2-3.42-2h-1.75v9.05H120.8Zm2.92,8.76h2.48c2.78,0,4.41-1.23,4.41-3.18s-1.4-3-4.09-3h-2.8Z"/><path class="cls-4" d="M148.3,371.68c6.18,0,9.8,4.5,9.8,10.54s-3.59,10.54-9.8,10.54-9.81-4.35-9.81-10.54S142.11,371.68,148.3,371.68Zm0,18.51c4.7,0,6.71-3.91,6.71-8s-2.22-8-6.71-8-6.72,3.83-6.72,8S143.6,390.19,148.3,390.19Z"/><path class="cls-4" d="M163,372h4.82L174.21,389,180.49,372h4.81v20.38h-2.92V374.78h0l-6.75,17.63h-2.86L166,374.78h-.06v17.63H163Z"/><path class="cls-4" d="M191.08,372h5.34c4.17,0,7.65,1.46,7.65,6.1s-3.54,6.13-7.21,6.13H194v8.15h-2.92Zm2.92,9.66h2.89c1.81,0,4.08-.9,4.08-3.59s-2.68-3.5-4.49-3.5H194Z"/><path class="cls-4" d="M212.26,374.6h-6.33V372h15.59v2.57h-6.34v17.81h-2.92Z"/><path class="cls-4" d="M234.42,375.1a8.91,8.91,0,0,0-3.83-.85c-1.63,0-3.56.59-3.56,2.72,0,3.91,8.76,3,8.76,9.72,0,4.35-3.36,6.07-7.45,6.07a13.59,13.59,0,0,1-4.17-.85l.29-2.71a12.65,12.65,0,0,0,4.24,1c1.66,0,4-.93,4-3.33,0-4.55-8.75-3.3-8.75-9.63,0-3.62,2.86-5.55,6.54-5.55a13.83,13.83,0,0,1,4.35.73Z"/><rect class="cls-5" width="335.38" height="452.17"/></svg>