<?xml version="1.0" encoding="utf-8"?>
<!-- Generator: Adobe Illustrator 19.0.0, SVG Export Plug-In . SVG Version: 6.00 Build 0)  -->
<svg version="1.1" id="Layer_1" xmlns="http://www.w3.org/2000/svg" xmlns:xlink="http://www.w3.org/1999/xlink" x="0px" y="0px"
	 viewBox="0 0 64 64" style="enable-background:new 0 0 64 64;" xml:space="preserve">
<style type="text/css">
	.st0{fill:#5C92C5;}
</style>
<g>
	<path class="st0" d="M38,44c0-1.7-0.5-3.1-1.4-4c-0.9-1-2.5-1.9-4.9-2.8c-5.7-2.1-9.8-4.2-12.4-6.3c-2.6-2.1-3.9-5.2-3.9-9.4
		c0-3.7,1.4-6.8,4.1-9.2c2.7-2.4,6.4-3.8,11-4.2V0.1h5.7v8.2c4.3,0.6,7.8,2.2,10.3,4.9c2.5,2.7,3.8,6.1,3.7,10.3l-0.1,0.2H38.2
		c0-2.4-0.5-4.2-1.5-5.4c-1-1.2-2.4-1.8-4-1.8c-1.7,0-3,0.5-3.8,1.5c-0.8,1-1.2,2.2-1.2,3.7c0,1.5,0.4,2.7,1.3,3.7
		c0.9,0.9,2.5,1.9,4.9,2.9c5.6,2.2,9.7,4.3,12.3,6.5c2.6,2.2,3.9,5.3,3.9,9.3c0,3.8-1.3,6.9-4,9.2c-2.6,2.3-6.2,3.7-10.6,4.1v6.6
		h-5.7v-6.7c-4.7-0.4-8.5-1.9-11.6-4.5c-3.1-2.6-4.6-6.3-4.5-11.3l0.1-0.2h11.9c0,2.7,0.6,4.7,1.9,5.9c1.3,1.2,3,1.8,5.1,1.8
		c1.7,0,3-0.5,3.9-1.4C37.5,46.7,38,45.5,38,44z"/>
</g>
</svg>
