<svg id="Layer_3" data-name="Layer 3" xmlns="http://www.w3.org/2000/svg" viewBox="0 0 335.38 452.17"><defs><style>.cls-1{fill:#1288be;}.cls-2{fill:#429fbf;}.cls-3{fill:#1776b3;}.cls-4,.cls-5{fill:#368eb2;}.cls-5{opacity:0.01;}</style></defs><title>btn_value_new</title><path class="cls-1" d="M77.72,135.93A66.77,66.77,0,0,1,46,124.31L56.59,108.7c7.51,5.28,14.56,8.45,21.83,9.62V104.24C59.52,99.89,49.9,93.43,49.9,78.88v-.24C49.9,64.79,60,55.16,78,53.87V47.18H90.17v7a53.51,53.51,0,0,1,24.77,9.16l-9.63,15.73a47.12,47.12,0,0,0-15.73-7V85.69c18.66,4.34,28.06,11,28.06,25.59v.23c0,14.33-11,23.13-27.71,24.66v11.5H77.72ZM78.54,71c-5.75.47-8,2.82-8,5.87v.24c0,3,1.64,4.81,8,6.57Zm18.79,42v-.23c0-3.17-1.76-4.93-7.87-6.7V119C94.86,118.44,97.33,116.45,97.33,113Z"/><path class="cls-2" d="M161.78,135.93a66.77,66.77,0,0,1-31.7-11.62l10.57-15.61c7.51,5.28,14.55,8.45,21.83,9.62V104.24C143.58,99.89,134,93.43,134,78.88v-.24c0-13.85,10.09-23.48,28-24.77V47.18h12.21v7A53.51,53.51,0,0,1,199,63.38l-9.63,15.73a47.21,47.21,0,0,0-15.73-7V85.69c18.66,4.34,28.06,11,28.06,25.59v.23c0,14.33-11,23.13-27.71,24.66v11.5H161.78ZM162.6,71c-5.75.47-8,2.82-8,5.87v.24c0,3,1.64,4.81,8,6.57Zm18.78,42v-.23c0-3.17-1.76-4.93-7.86-6.7V119C178.92,118.44,181.38,116.45,181.38,113Z"/><path class="cls-1" d="M245.84,135.93a66.73,66.73,0,0,1-31.7-11.62l10.57-15.61c7.51,5.28,14.55,8.45,21.83,9.62V104.24C227.64,99.89,218,93.43,218,78.88v-.24c0-13.85,10.1-23.48,28.06-24.77V47.18h12.21v7a53.43,53.43,0,0,1,24.77,9.16l-9.62,15.73a47.21,47.21,0,0,0-15.73-7V85.69c18.66,4.34,28.05,11,28.05,25.59v.23c0,14.33-11,23.13-27.7,24.66v11.5H245.84ZM246.66,71c-5.75.47-8,2.82-8,5.87v.24c0,3,1.64,4.81,8,6.57Zm18.78,42v-.23c0-3.17-1.76-4.93-7.86-6.7V119C263,118.44,265.44,116.45,265.44,113Z"/><path class="cls-3" d="M90.22,195.26h7.57l7.62,27.31L113,195.26h7.56l-11.89,39.2h-6.54Z"/><path class="cls-3" d="M150.42,234.46l-3.59-9.5H132.21l-3.58,9.5h-7.74l14.68-39.2h7.85l14.68,39.2ZM139.5,203.62l-4.84,15h9.79Z"/><path class="cls-3" d="M164.08,234.46v-39.2h7.28V228H186.5v6.49Z"/><path class="cls-3" d="M202.54,226a7.75,7.75,0,0,0,10.61,0,7.08,7.08,0,0,0,2.25-5.41V195.26h7.28v25.37A13.5,13.5,0,0,1,218.33,231a15.82,15.82,0,0,1-21.05,0,13.5,13.5,0,0,1-4.35-10.39V195.26h7.39v25.37A7.12,7.12,0,0,0,202.54,226Z"/><path class="cls-3" d="M233.15,234.46v-39.2h24.24v6.48h-17v10.19h14.91v6.43H240.38V228H258v6.49Z"/><path class="cls-4" d="M131.67,275.5a8.2,8.2,0,0,0-4.18-1.13c-4.67,0-7.77,3.37-7.77,7.92a7.55,7.55,0,0,0,7.63,7.92,9.91,9.91,0,0,0,4.4-1l.18,2.82a12.81,12.81,0,0,1-4.61.72c-6.41,0-10.68-4.12-10.68-10.56,0-6.23,4.53-10.38,10.71-10.38a11.14,11.14,0,0,1,4.55.87Z"/><path class="cls-4" d="M145.15,271.82c6.15,0,9.75,4.47,9.75,10.47s-3.57,10.47-9.75,10.47-9.74-4.32-9.74-10.47S139,271.82,145.15,271.82Zm0,18.39c4.67,0,6.67-3.89,6.67-7.92s-2.2-8-6.67-7.92-6.67,3.8-6.67,7.92S140.48,290.21,145.15,290.21Z"/><path class="cls-4" d="M160.09,272.17h4.78L171.23,289l6.23-16.82h4.79v20.24h-2.9V274.89h-.06l-6.7,17.52h-2.84l-6.7-17.52H163v17.52h-2.9Z"/><path class="cls-4" d="M188.3,272.17h5.49c4.2,0,7.1,1.36,7.1,5.1,0,2.79-1.62,4.18-4.17,4.82v.06a4.74,4.74,0,0,1,4.7,4.87c0,4.35-3.6,5.39-7.72,5.39h-5.4Zm2.91,8.64h1.59c2.82,0,5.19-.26,5.19-3.25,0-2.4-2.06-3-3.74-3h-3Zm0,9.23h2.17c2.61,0,5-.56,5-3.28,0-3.13-2.75-3.57-5.25-3.57h-1.88Z"/><path class="cls-4" d="M216,271.82c6.15,0,9.74,4.47,9.74,10.47s-3.57,10.47-9.74,10.47-9.75-4.32-9.75-10.47S209.8,271.82,216,271.82Zm0,18.39c4.67,0,6.67-3.89,6.67-7.92s-2.21-8-6.67-7.92-6.68,3.8-6.68,7.92S211.28,290.21,216,290.21Z"/><path class="cls-4" d="M108.52,321.89h2.9v17.69h8.47v2.56H108.52Z"/><path class="cls-4" d="M132.8,321.54c6.15,0,9.74,4.47,9.74,10.47,0,6.15-3.56,10.47-9.74,10.47s-9.75-4.32-9.75-10.47C123.05,326,126.65,321.54,132.8,321.54Zm0,18.39c4.67,0,6.67-3.88,6.67-7.92s-2.21-7.94-6.67-7.92-6.67,3.8-6.67,7.92S128.13,339.93,132.8,339.93Z"/><path class="cls-4" d="M153.36,333.67l-7.92-11.78h3.39l6,9.08,5.89-9.08h3.39l-7.89,11.78v8.47h-2.9Z"/><path class="cls-4" d="M172.91,321.89h3l8.56,20.25h-3.16L179.29,337h-9.92l-2.06,5.11h-3.05Zm1.42,2.73-4,10h8.06Z"/><path class="cls-4" d="M188.45,321.89h2.9v17.69h8.47v2.56H188.45Z"/><path class="cls-4" d="M206.46,324.44h-6.29v-2.55h15.49v2.55h-6.3v17.7h-2.9Z"/><path class="cls-4" d="M225.26,333.67l-7.92-11.78h3.39l6,9.08,5.89-9.08h3.4l-7.89,11.78v8.47h-2.9Z"/><path class="cls-4" d="M74.6,371.61h5.31c4.15,0,7.6,1.45,7.6,6.06s-3.51,6.1-7.16,6.1H77.5v8.09H74.6Zm2.9,9.6h2.88c1.79,0,4.06-.9,4.06-3.56s-2.67-3.48-4.47-3.48H77.5Z"/><path class="cls-4" d="M91.77,371.61h5c4,0,7.86.64,7.86,5.48a4.72,4.72,0,0,1-4.17,4.62v.05c.9.35,1.33.79,2,2l3.83,8.06h-3.31l-3.1-7c-.9-2-1.86-2-3.4-2H94.67v9h-2.9Zm2.9,8.7h2.47c2.75,0,4.38-1.21,4.38-3.16s-1.39-3-4.06-3H94.67Z"/><path class="cls-4" d="M119.41,371.26c6.15,0,9.75,4.47,9.75,10.48s-3.57,10.47-9.75,10.47-9.74-4.32-9.74-10.47S113.26,371.26,119.41,371.26Zm0,18.4c4.67,0,6.67-3.89,6.67-7.92s-2.2-7.95-6.67-7.92-6.67,3.8-6.67,7.92S114.74,389.66,119.41,389.66Z"/><path class="cls-4" d="M134.35,371.61h4.78l6.36,16.83,6.23-16.83h4.79v20.25h-2.9V374.34h-.06l-6.7,17.52H144l-6.7-17.52h-.06v17.52h-2.9Z"/><path class="cls-4" d="M171.44,371.26c6.15,0,9.75,4.47,9.75,10.48s-3.57,10.47-9.75,10.47-9.74-4.32-9.74-10.47S165.29,371.26,171.44,371.26Zm0,18.4c4.67,0,6.67-3.89,6.67-7.92s-2.2-7.95-6.67-7.92-6.67,3.8-6.67,7.92S166.77,389.66,171.44,389.66Z"/><path class="cls-4" d="M190.38,374.17h-6.29v-2.56h15.49v2.56h-6.3v17.69h-2.9Z"/><path class="cls-4" d="M203.52,371.61h2.9v20.25h-2.9Z"/><path class="cls-4" d="M221.33,371.26c6.15,0,9.74,4.47,9.74,10.48s-3.57,10.47-9.74,10.47-9.75-4.32-9.75-10.47S215.18,371.26,221.33,371.26Zm0,18.4c4.67,0,6.67-3.89,6.67-7.92s-2.21-7.95-6.67-7.92-6.68,3.8-6.68,7.92S216.66,389.66,221.33,389.66Z"/><path class="cls-4" d="M236.2,371.61h4l8.93,16.3h.06v-16.3H252v20.25h-3.71l-9.17-16.65h-.06v16.65h-2.9Z"/><path class="cls-4" d="M267.41,374.66a8.92,8.92,0,0,0-3.8-.84c-1.62,0-3.54.58-3.54,2.69,0,3.89,8.7,3,8.7,9.66,0,4.33-3.33,6-7.39,6a13.69,13.69,0,0,1-4.15-.84l.29-2.7a12.18,12.18,0,0,0,4.2,1c1.66,0,4-.93,4-3.31,0-4.53-8.7-3.28-8.7-9.57,0-3.6,2.84-5.52,6.49-5.52a13.66,13.66,0,0,1,4.33.73Z"/><rect class="cls-5" width="335.38" height="452.17"/></svg>