<?xml version="1.0" encoding="utf-8"?>
<!-- Generator: Adobe Illustrator 19.0.0, SVG Export Plug-In . SVG Version: 6.00 Build 0)  -->
<svg version="1.1" xmlns="http://www.w3.org/2000/svg" xmlns:xlink="http://www.w3.org/1999/xlink" x="0px" y="0px"
	 viewBox="0 0 220.7 421.3" style="enable-background:new 0 0 220.7 421.3;" xml:space="preserve">
<style type="text/css">
	.st0{display:none;}
	.st1{display:inline;}
	.st2{fill:url(#SVGID_1_);}
	.st3{fill:#FFFFFF;}
	.st4{font-family:'Futura-Bold';}
	.st5{font-size:67px;}
	.st6{letter-spacing:-8.1;}
	.st7{letter-spacing:-1;}
</style>
<g id="Layer_2" class="st0">
	<g class="st1">
		<radialGradient id="SVGID_1_" cx="122.0017" cy="237.7094" r="283.9622" gradientUnits="userSpaceOnUse">
			<stop  offset="0" style="stop-color:#00ADEE"/>
			<stop  offset="0.3643" style="stop-color:#00ACED"/>
			<stop  offset="0.5603" style="stop-color:#00A3E5"/>
			<stop  offset="0.8746" style="stop-color:#008CCF"/>
			<stop  offset="0.9949" style="stop-color:#0081C5"/>
		</radialGradient>
		<circle class="st2" cx="122" cy="237.7" r="284"/>
	</g>
	<g class="st1">
		<path class="st3" d="M122,492c112.6,0,208.1-73.7,240.7-175.5h-481.4C-86.1,418.3,9.4,492,122,492z"/>
	</g>
</g>
<g id="Layer_1">
	<g>
		<g>
			<g>
				<path class="st3" d="M96.6,293.9v-21.1c-13.4-1.7-25.1-5.2-34.6-10.5c-13.3-7.5-25.9-17.5-37.3-29.9l-0.8-0.9l31.7-32.9l0.9,1
					c18.9,20.4,37.4,30.7,55,30.7c8.8,0,16.4-3.1,22.7-9.3c6.3-6.2,9.5-13.5,9.5-21.8c0-7-2-13.3-6.1-18.5
					c-4.2-5.3-12.4-10.9-24.5-16.5c-25-11.7-42.2-21.1-51.1-28c-8.9-6.9-15.7-14.9-20.2-23.5c-4.4-8.7-6.7-18.1-6.7-27.9
					c0-16.3,6-30.5,17.7-42.1C64.5,31.4,79.2,25.1,96.6,24V1.2h32.2v25c9.9,2.4,18.4,5.7,25.4,9.8c7.2,4.2,15.7,11.3,25.4,21.2
					l0.9,0.9l-32.3,31.7l-0.9-0.9c-13.6-14.1-27.2-21.3-40.3-21.3c-7.7,0-13.9,2.1-18.7,6.2c-4.8,4.1-7.1,8.7-7.1,14
					c0,4.4,2.1,8.9,6.3,13.3c4.2,4.6,12.9,9.7,25.8,15c23.4,9.8,39.6,18.3,48.3,25.2c8.7,7,15.5,15.5,20.2,25.3
					c4.7,9.8,7.1,20.9,7.1,33.1c0,12.1-2.5,23.5-7.5,33.9c-5,10.3-11.6,18.6-19.5,24.7c-7.7,5.9-18.9,10.5-33.1,13.6v22.1H96.6z"/>
				<path class="st3" d="M127.5,2.5v24.7c10.2,2.4,18.9,5.7,26,9.9c7.1,4.1,15.5,11.2,25.2,21l-30.5,30
					c-13.9-14.4-27.6-21.7-41.2-21.7c-8,0-14.5,2.2-19.5,6.5c-5,4.3-7.5,9.3-7.5,14.9c0,4.8,2.2,9.5,6.6,14.2
					c4.3,4.8,13.1,9.9,26.2,15.3c23.4,9.8,39.4,18.1,48,25c8.6,6.9,15.3,15.2,19.9,24.9c4.6,9.7,6.9,20.5,6.9,32.5
					c0,12-2.5,23.1-7.4,33.3c-4.9,10.2-11.3,18.3-19.1,24.2c-7.8,6-19,10.5-33.6,13.5v21.9H97.8v-20.9c-13.8-1.6-25.5-5.1-35.2-10.5
					c-13.3-7.4-25.6-17.3-36.9-29.6l30-31.1c19.3,20.7,37.9,31.1,55.9,31.1c9.2,0,17-3.2,23.6-9.6c6.6-6.4,9.9-14,9.9-22.7
					c0-7.3-2.1-13.8-6.3-19.3c-4.3-5.5-12.6-11.2-24.9-16.9c-25.1-11.7-42-21-50.8-27.8c-8.8-6.9-15.4-14.6-19.8-23.1
					c-4.4-8.6-6.6-17.7-6.6-27.3c0-16,5.8-29.8,17.4-41.2C65.5,32.2,80.1,26,97.8,25.2V2.5H127.5 M130,0h-2.5H97.8h-2.5v2.5v20.3
					c-17.2,1.3-31.7,7.7-43.2,19c-12,11.9-18.1,26.3-18.1,43c0,10,2.3,19.6,6.8,28.5c4.5,8.8,11.4,16.9,20.5,23.9
					c9,6.9,26.2,16.4,51.3,28.1c11.9,5.5,20,11,24,16.2c3.8,5,5.8,11,5.8,17.8c0,8.1-3,14.9-9.1,20.9c-6.2,6-13.3,8.9-21.9,8.9
					c-17.2,0-35.4-10.2-54.1-30.3l-1.8-1.9l-1.8,1.9l-30,31.1l-1.6,1.7l1.6,1.7c11.5,12.5,24.1,22.6,37.6,30.1
					c9.4,5.3,20.8,8.8,33.9,10.5v18.7v2.5h2.5h29.7h2.5v-2.5v-19.9c14-3.1,25-7.7,32.7-13.6c8.1-6.2,14.7-14.6,19.8-25.1
					c5.1-10.5,7.7-22.1,7.7-34.4c0-12.3-2.4-23.6-7.2-33.6c-4.8-10-11.7-18.6-20.6-25.7c-8.8-7-25.1-15.6-48.6-25.4
					c-12.8-5.3-21.3-10.2-25.3-14.7l0,0l0,0c-3.9-4.2-6-8.4-6-12.5c0-4.9,2.2-9.2,6.6-13c4.5-3.9,10.5-5.9,17.9-5.9
					c12.8,0,26.1,7,39.4,20.9l1.7,1.8l1.8-1.8l30.5-30l1.8-1.7l-1.7-1.8c-9.8-10-18.4-17.2-25.7-21.4c-6.8-4-15.1-7.2-24.7-9.7V2.5
					V0L130,0z"/>
			</g>
		</g>
	</g>
	<text transform="matrix(0.9907 0 0 1 0 398.2645)"><tspan x="0" y="0" class="st3 st4 st5 st6">V</tspan><tspan x="44.6" y="0" class="st3 st4 st5 st7">A</tspan><tspan x="97" y="0" class="st3 st4 st5 st7">L</tspan><tspan x="131" y="0" class="st3 st4 st5">U</tspan><tspan x="184.6" y="0" class="st3 st4 st5">E</tspan></text>
</g>
</svg>
