<?xml version="1.0" encoding="utf-8"?>
<!-- Generator: Adobe Illustrator 19.0.0, SVG Export Plug-In . SVG Version: 6.00 Build 0)  -->
<svg version="1.1" xmlns="http://www.w3.org/2000/svg" xmlns:xlink="http://www.w3.org/1999/xlink" x="0px" y="0px"
	 viewBox="0 0 365.6 396.3" style="enable-background:new 0 0 365.6 396.3;" xml:space="preserve">
<style type="text/css">
	.st0{display:none;}
	.st1{display:inline;}
	.st2{fill:url(#SVGID_1_);}
	.st3{fill:#FFFFFF;}
	.st4{fill:#D3D3D3;}
	.st5{fill:none;stroke:#FFFFFF;stroke-width:26.0298;stroke-linecap:round;stroke-linejoin:round;stroke-miterlimit:10;}
	.st6{font-family:'Futura-Bold';}
	.st7{font-size:67px;}
	.st8{letter-spacing:-2;}
	.st9{letter-spacing:-1;}
</style>
<g id="Layer_2" class="st0">
	<g class="st1">
		<radialGradient id="SVGID_1_" cx="182.5909" cy="210.1463" r="283.9622" gradientUnits="userSpaceOnUse">
			<stop  offset="0" style="stop-color:#00ADEE"/>
			<stop  offset="0.3643" style="stop-color:#00ACED"/>
			<stop  offset="0.5603" style="stop-color:#00A3E5"/>
			<stop  offset="0.8746" style="stop-color:#008CCF"/>
			<stop  offset="0.9949" style="stop-color:#0081C5"/>
		</radialGradient>
		<circle class="st2" cx="182.6" cy="210.1" r="284"/>
	</g>
	<g class="st1">
		<path class="st3" d="M182.6,462.8c112.6,0,208.1-73.7,240.7-175.5H-58.1C-25.5,389.1,69.9,462.8,182.6,462.8z"/>
	</g>
</g>
<g id="Layer_1">
	<g>
		<g>
			<circle class="st4" cx="183.6" cy="167" r="30"/>
			<path class="st4" d="M20.1,109.4l49-65.5c0,0,10.2-12.7,21-14l10.2-14c0,0,7-15.9,30.5-15.9s29.9,27.4,29.9,27.4l-1.3,24.8
				c0,0,8.9,5.7,7,16.5c10.8-4.5,10.8-7,28,1.3l-4.5,80.8l-20.4,2.5c0,0-11.4-54.1-65.5-55.3C50,96.7,20.1,109.4,20.1,109.4z"/>
			<path class="st4" d="M341.9,109.4l-49-65.5c0,0-10.2-12.7-21-14l-10.2-14c0,0-7-15.9-30.5-15.9c-23.5,0-29.9,27.4-29.9,27.4
				l1.3,24.8c0,0-8.9,5.7-7,16.5c-10.5-7.3-17.9-7.1-29.6,0.3l6,81.8l20.4,2.5c0,0,11.4-54.1,65.5-55.3
				C312,96.7,341.9,109.4,341.9,109.4z"/>
			<circle class="st5" cx="88.4" cy="167" r="75.4"/>
			<circle class="st5" cx="277.2" cy="167" r="75.4"/>
		</g>
	</g>
	<text transform="matrix(0.9907 0 0 1 17.3356 373.213)"><tspan x="0" y="0" class="st3 st6 st7 st8">V</tspan><tspan x="50.7" y="0" class="st3 st6 st7 st9">I</tspan><tspan x="73" y="0" class="st3 st6 st7 st9">S</tspan><tspan x="114.6" y="0" class="st3 st6 st7">I</tspan><tspan x="137.3" y="0" class="st3 st6 st7 st9">B</tspan><tspan x="182.3" y="0" class="st3 st6 st7">I</tspan><tspan x="205.7" y="0" class="st3 st6 st7">L</tspan><tspan x="241.7" y="0" class="st3 st6 st7">I</tspan><tspan x="266.1" y="0" class="st3 st6 st7 st9">T</tspan><tspan x="299.9" y="0" class="st3 st6 st7">Y</tspan></text>
</g>
</svg>
