<?xml version="1.0" encoding="utf-8"?>
<!-- Generator: Adobe Illustrator 19.0.0, SVG Export Plug-In . SVG Version: 6.00 Build 0)  -->
<svg version="1.1" xmlns="http://www.w3.org/2000/svg" xmlns:xlink="http://www.w3.org/1999/xlink" x="0px" y="0px"
	 viewBox="0 0 339.2 397" style="enable-background:new 0 0 339.2 397;" xml:space="preserve">
<style type="text/css">
	.st0{display:none;}
	.st1{display:inline;}
	.st2{fill:url(#SVGID_1_);}
	.st3{fill:#FFFFFF;}
	.st4{fill:#D3D3D3;}
	.st5{fill:none;stroke:#E0E0E0;stroke-width:5.4036;stroke-miterlimit:10;}
	.st6{font-family:'Futura-Bold';}
	.st7{font-size:67px;}
	.st8{letter-spacing:-9.1;}
	.st9{letter-spacing:-4;}
</style>
<g id="Layer_2" class="st0">
	<g class="st1">
		<radialGradient id="SVGID_1_" cx="172.9019" cy="210.9133" r="283.9622" gradientUnits="userSpaceOnUse">
			<stop  offset="0" style="stop-color:#00ADEE"/>
			<stop  offset="0.3643" style="stop-color:#00ACED"/>
			<stop  offset="0.5603" style="stop-color:#00A3E5"/>
			<stop  offset="0.8746" style="stop-color:#008CCF"/>
			<stop  offset="0.9949" style="stop-color:#0081C5"/>
		</radialGradient>
		<circle class="st2" cx="172.9" cy="210.9" r="284"/>
	</g>
	<g class="st1">
		<path class="st3" d="M172.9,464.7c112.6,0,208.1-73.7,240.7-175.5H-67.8C-35.2,391,60.3,464.7,172.9,464.7z"/>
	</g>
</g>
<g id="Layer_1">
	<g>
		<g>
			<g>
				<path class="st4" d="M223.6,222.2h-96.8L109.5,20.8c0,0,62,33.9,135.7-0.1c-0.2,3.2-7.1,47.6-9.3,68.9
					C229.6,148.7,223.6,222.2,223.6,222.2z"/>
				<ellipse class="st5" cx="177.3" cy="18.9" rx="65.5" ry="16.2"/>
				<ellipse class="st4" cx="175.2" cy="220.5" rx="48.8" ry="17.1"/>
			</g>
			<path class="st3" d="M0,61.5c0,0,5,28,16.1,39.9c2.3,4.6,0.9,12.4,0.9,12.4s-0.5,14.7,2.3,21.6s-3.2,23,1.4,31.2
				c4.6,8.3,2.3,38.6,6.4,44.1s-13.8,11.5-5.5,48.2c4.1,1.8,45.4-9.2,68.4-4.6c23,4.6,38.1-4.1,38.1-4.1s15.1-7.8,29.4-2.8
				c1.4-21.1-7.3-43.2-12.9-43.6c0,0,2.8-24.3,0-27.5c-2.8-3.2-5.5-37.6-5.5-41.3s-3.2-37.6-6.9-42.2c2.3-6,8.7-23,5.5-45
				c-10.1,4.6-54.2,7.8-73,7.8S10.1,65.6,0,61.5z"/>
			<g>
				<path class="st3" d="M310.5,38.2c0,0-15-2.3-16.6-1.7c-1.6,0.6-4.6,11.8-4.6,11.8s-1.4,3.8,0,4.6c1.6,3.3-3.2,0.9-3.7,2.1
					c-0.6,1.2,3.5,1.5,4,2.8c0.6,1.3-0.8,4-0.8,4S256.9,72.8,255,84.1c-0.2,1.4-0.1,2.9-0.1,2.9l-12.6,53.6c0,0,0.3,3.6-1.7,7
					c-1.9,3.4-2.4,12.4,0.7,20.6s-4.3,14.6-4.3,14.6s-5.5,4.6-2.7,17.1c2.9,12.5-8.8,15.8-8.8,15.8s-6.5,6.9-4,18.2
					s2.5,18.8,6.8,21.2s2.3,8.3,19.1,5.7c10.2-1.6,14.9,1.8,20,6.2"/>
				<path class="st3" d="M310.5,38.2c0,0,14.4,4.8,15.6,6.1c1.2,1.3-1.3,12.5-1.3,12.5s-0.5,4.1-2.1,4.1c-2.9,2.2,2.4,2.2,2.4,3.6
					c-0.1,1.3-3.8-0.2-4.9,0.7s-1.1,4-1.1,4s23.4,24.3,19.9,35.3c-0.4,1.4-1.3,2.6-1.3,2.6l-13.3,53.4c0,0-1.9,3.1-1.7,7
					c0.2,3.9-3.5,12.1-10,18c-6.5,5.9-2.9,15-2.9,15s2.8,6.6-5.5,16.5c-8.3,9.8,0.6,18.1,0.6,18.1s2.7,9.1-4.7,18
					c-7.4,8.9-10.9,15.6-15.8,15.7c-4.9,0.1-5.9,6.4-19.6-3.7c-8.5-6.3-14.1-5.3-20.6-3.6"/>
			</g>
		</g>
	</g>
	<text transform="matrix(0.9907 0 0 1 34.156 373.9801)"><tspan x="0" y="0" class="st3 st6 st7 st8">V</tspan><tspan x="42.9" y="0" class="st3 st6 st7 st9">A</tspan><tspan x="92" y="0" class="st3 st6 st7">RIETY</tspan></text>
</g>
</svg>
