<?xml version="1.0" encoding="utf-8"?>
<!-- Generator: Adobe Illustrator 22.1.0, SVG Export Plug-In . SVG Version: 6.00 Build 0)  -->
<svg version="1.1" id="Layer_1" xmlns="http://www.w3.org/2000/svg" xmlns:xlink="http://www.w3.org/1999/xlink" x="0px" y="0px"
	 viewBox="0 0 521.7 148.4" style="enable-background:new 0 0 521.7 148.4;" xml:space="preserve">
<style type="text/css">
	.st0{fill:#FFC600;}
	.st1{fill:#FF4D00;}
	.st2{fill:#002F87;}
	.st3{fill:#E1251B;}
	.st4{fill:#00953B;}
</style>
<g>
	<g>
		<path class="st0" d="M509,117.5c-1.6-1.5-3.7-2.5-6.1-2.5c-3,0-5.7,1.5-7.3,3.9c-0.8,0.3-1.4,0.6-1.6,1c-0.6,1.1-1.1,2.8-0.9,5
			c0,0.6,0.1,1.2,0.2,1.8c0,0,0,0,0,0c0,0.1,0,0.2,0.1,0.3c0,0,0,0,0,0c0,0.2,0.1,0.4,0.1,0.6c0,0.1,0,0.1,0,0.2c0,0,0,0.1,0,0.1
			c0,0.1,0,0.1,0.1,0.2c0,0,0,0.1,0,0.1c0,0.1,0,0.1,0.1,0.2c0,0,0,0,0,0.1c0,0.1,0,0.2,0.1,0.2c0,0,0,0,0,0
			c0.2,0.5,0.3,0.9,0.6,1.3c0,0,0,0,0,0c0,0.1,0.7,1,2.6,1.4c0.6,0.1,1.2,0.2,1.8,0.2c1.3,0.7,2.7,1.1,4.2,1.1
			c3.3,0,6.2-1.8,7.7-4.6c1.4-0.2,2.2-0.7,2.5-1.1c0.1-0.2,0.2-0.3,0.2-0.4c0.2-3.3-0.5-6.4-1.9-8
			C511.5,118.6,510.7,117.7,509,117.5z M502.9,115.4c3.1,0,5.8,1.6,7.3,4.1c0.8-0.2,1-0.6,1.1-0.8c0.1,0.1,0.1,0.2,0.2,0.3
			c-0.1,0.3-0.5,0.7-1.5,0.9c0,0,0,0,0,0l0.1-0.2h-1.4l0,0.1c0,0,0,0.2-0.1,0.3c-1.7,0.1-3.3-0.2-5.5-0.8c-2.4-0.6-4-0.7-5.5-0.6
			c-0.5,0-1,0.1-1.4,0.2C497.7,116.7,500.2,115.4,502.9,115.4z M509.8,119.7c0,0-0.2,0.4-0.3,0.6c-0.3,0.4-0.8,0.4-1.1,0.4
			c0.2-0.2,0.2-0.3,0.2-0.4c0-0.1,0.2-0.6,0.2-0.6H509.8z M504.4,125.9c-0.6,0-0.9-0.3-1-0.9c-0.3,0.4-0.9,0.9-1.6,0.9
			c-0.6,0-0.9-0.4-1-0.9c-0.2,0.3-0.8,0.9-1.5,0.9c-0.7,0-1.3-0.5-1.3-1.7c0-1.5,1.1-3.7,2.8-3.7c0.4,0,0.8,0.2,0.9,0.5l0.1-0.3h1.3
			c0,0-0.7,3.1-0.7,3.4c-0.1,0.4-0.1,0.8,0.2,0.8c0.3,0,0.7-0.6,0.9-1c0,0,0-0.1,0-0.1c0.1-0.4,0.7-3.1,0.7-3.1h1.4
			c0,0-0.6,2.8-0.7,3.2c-0.1,0.5-0.1,1,0.2,1c0.5,0,0.9-0.8,1.1-1.7c0.1-0.4,0.5-2.5,0.5-2.5h1.5c0,0-1,4.7-1.1,5.2
			c-0.3,1.5-1.1,1.8-2.1,1.8c-0.3,0-0.9,0-1.1,0c-0.5,0-0.8,0.1-1.1,0.2c0.1-0.3,0.1-0.4,0.2-0.7c0.1-0.4,0.4-0.6,1-0.6
			c0.3,0,0.6,0.1,0.9,0.1c0.5,0,0.6-0.2,0.7-0.7c0-0.1,0.1-0.5,0.1-0.6C505.4,125.6,505,125.9,504.4,125.9z M496.2,120.5
			c0.2-0.8,0.2-1.1,0.1-1.4l1.9,0l-1.6,7.4c0.2,0,0.8,0,1,0c0.9,0,1.9,0.2,3.1,0.2c1,0,1.4-0.1,1.8-0.2c-0.1,0.2-0.1,0.4-0.2,0.7
			c-0.3,0.7-0.9,0.7-1.6,0.7c-0.8,0-2.6-0.4-3.8-0.4c-0.9,0-1.8,0.1-2.1,0.2C494.7,127.7,496,121.4,496.2,120.5z M502.9,132.5
			c-2.9,0-5.4-1.4-6.9-3.6c-0.7,0.4-1.2,0.8-1.2,1.3c-0.1-0.1-0.2-0.3-0.3-0.4c0.5-0.9,2.1-1.6,3.8-1.9c0.3,0,0.5,0.1,0.8,0.1
			c0.6,0.1,1.2,0.2,1.6,0.2c0.6,0,1.2,0,1.6-0.5c0.1,0,0.3,0,0.4,0c0,0,0,0,0,0l-0.2,0.5l0.4-0.2c0.3-0.2,0.6-0.2,1-0.2c0,0,0,0,0,0
			c0.4,0.1,0.8,0.1,1.1,0.2c1.1,0.2,3.2,0.5,4.9,0.4c0.2,0,0.4,0,0.5,0C508.8,130.8,506,132.5,502.9,132.5z M511.2,121.6
			c-0.4,0-0.5-0.3-0.8-0.3c-0.4,0-0.6,0.3-0.7,0.5c0,0.4,0.6,0.8,0.7,0.8c0.5,0.5,1,0.9,1,1.6c0,0.7-0.7,1.7-2.3,1.7
			c-0.8,0-1.2-0.2-1.5-0.5c0.1-0.3,0.4-0.7,0.8-0.7c0.5,0,0.7,0.4,1.1,0.4c0.4,0,0.6-0.3,0.6-0.5c0-0.5-0.4-0.6-0.8-1.1
			c-0.5-0.4-0.8-0.7-0.8-1.4c0-0.7,0.8-1.6,2.3-1.6c0.5,0,1,0.1,1.2,0.3C511.9,121.1,511.6,121.6,511.2,121.6z"/>
		<path class="st0" d="M500.8,121.4c-0.8,0-1.4,1.9-1.4,2.7c0,0.5,0.1,0.7,0.4,0.7c0.7,0,1.2-1.3,1.4-2.7
			C501.3,121.9,501.2,121.4,500.8,121.4z"/>
		<g>
			<path class="st0" d="M511.4,128.7c0.2,0,0.4,0.2,0.4,0.4c0,0.2-0.2,0.4-0.4,0.4s-0.4-0.2-0.4-0.4
				C511,128.8,511.2,128.7,511.4,128.7z M511.4,129.4c0.2,0,0.3-0.1,0.3-0.3c0-0.2-0.1-0.3-0.3-0.3s-0.3,0.1-0.3,0.3
				C511.1,129.3,511.2,129.4,511.4,129.4z M511.2,128.8h0.2c0.1,0,0.2,0,0.2,0.1c0,0.1-0.1,0.1-0.1,0.1l0.1,0.2h-0.1l-0.1-0.2h-0.1
				v0.2h-0.1V128.8z M511.4,129.1C511.5,129.1,511.5,129,511.4,129.1c0.1-0.1,0-0.1,0-0.1h-0.1L511.4,129.1L511.4,129.1z"/>
		</g>
	</g>
	<path class="st0" d="M521.3,143.8c-0.3-4.3-1.3-11.4-2.5-16.1c-2.5-9.7,0.7-16.8,1.8-19.1c0.2-0.5,0.3-0.7,0.4-0.9
		c0.1-0.8,0.4-3.8,0.4-3.8c0-0.2,0-0.4-0.2-0.5c-0.1-0.1-0.3-0.2-0.5-0.2c-0.1,0-8.5,0-17.6,0.6c-9,0.6-17.3-0.6-17.4-0.6
		c-0.2,0-0.4,0-0.5,0.2c-0.1,0.1-0.2,0.3-0.2,0.5c0.1,1.3,0.3,2.7,0.3,2.9c0,0.1,0,0.2,0.3,1.1c2.3,8.3,3.1,14.5,2.4,18.5
		c-0.3,1.7-0.7,3.8-1.1,6c-0.8,4.2-1.5,8.6-1.9,11.4c-0.3,1.8-0.1,3-0.1,3c0,0.2,0.2,0.4,0.4,0.5c0.1,0,0.2,0,0.3,0
		c0.2,0,0.6,0.1,1.3,0.1c2.1,0.2,6.4,0.7,11.4,0.7c1.6,0,3.3-0.1,5-0.2c10.9-0.8,17.1-0.6,17.2-0.6c0.3,0,0.6-0.2,0.6-0.5
		C521.1,146.8,521.4,145.7,521.3,143.8z M519.6,104.5c0.1,0,0.3,0,0.4,0c-0.1,0.6-0.1,1.3-0.2,2c-0.1,0-0.2,0-0.2,0V104.5z
		 M518.6,104.5c0.2,0,0.4,0,0.6,0v2c-0.2,0-0.4,0-0.6,0V104.5z M517.6,104.5c0.2,0,0.4,0,0.6,0v2c-0.2,0-0.4,0-0.6,0V104.5z
		 M516.7,104.5c0.2,0,0.4,0,0.6,0v2c-0.2,0-0.4,0-0.6,0V104.5z M515.7,104.6c0.2,0,0.4,0,0.6,0v2c-0.2,0-0.4,0-0.6,0V104.6z
		 M514.7,104.6c0.2,0,0.4,0,0.6,0v2c-0.2,0-0.4,0-0.6,0V104.6z M513.7,104.6c0.2,0,0.4,0,0.6,0v2c-0.2,0-0.4,0-0.6,0V104.6z
		 M512.8,104.6c0.2,0,0.4,0,0.6,0v2c-0.2,0-0.4,0-0.6,0V104.6z M511.8,104.7c0.2,0,0.4,0,0.6,0v2c-0.2,0-0.4,0-0.6,0V104.7z
		 M510.8,104.7c0.2,0,0.4,0,0.6,0v2c-0.2,0-0.4,0-0.6,0V104.7z M509.8,104.7c0.2,0,0.4,0,0.6,0v2c-0.2,0-0.4,0-0.6,0V104.7z
		 M508.9,104.8c0.2,0,0.4,0,0.6,0v2c-0.2,0-0.4,0-0.6,0V104.8z M507.9,104.8c0.2,0,0.4,0,0.6,0v2c-0.2,0-0.4,0-0.6,0V104.8z
		 M506.9,104.9c0.2,0,0.4,0,0.6,0v2c-0.2,0-0.4,0-0.6,0V104.9z M505.9,104.9c0.2,0,0.4,0,0.6,0v2c-0.2,0-0.4,0-0.6,0V104.9z
		 M505,105c0.2,0,0.4,0,0.6,0v2c-0.2,0-0.4,0-0.6,0V105z M504,105c0.2,0,0.4,0,0.6,0v2c-0.2,0-0.4,0-0.6,0V105z M503,105.1
		c0,0,0.1,0,0.1,0c0.2,0,0.3,0,0.5,0v2c-0.2,0-0.4,0-0.5,0c0,0,0,0-0.1,0V105.1z M502.1,105.1c0.2,0,0.4,0,0.6,0v2
		c-0.2,0-0.4,0-0.6,0V105.1z M501.1,105.2c0.2,0,0.4,0,0.6,0v2c-0.2,0-0.4,0-0.6,0V105.2z M500.1,105.2c0.2,0,0.4,0,0.6,0v2
		c-0.2,0-0.4,0-0.6,0V105.2z M499.1,105.2c0.2,0,0.4,0,0.6,0v2c-0.2,0-0.4,0-0.6,0V105.2z M498.2,105.2c0.2,0,0.4,0,0.6,0v2
		c-0.2,0-0.4,0-0.6,0V105.2z M497.2,105.2c0.2,0,0.4,0,0.6,0v2c-0.2,0-0.4,0-0.6,0V105.2z M496.2,105.2c0.2,0,0.4,0,0.6,0v2
		c-0.2,0-0.4,0-0.6,0V105.2z M495.2,105.2c0.2,0,0.4,0,0.6,0v2c-0.2,0-0.4,0-0.6,0V105.2z M494.3,105.2c0.2,0,0.4,0,0.6,0v2
		c-0.2,0-0.4,0-0.6,0V105.2z M493.3,105.1c0.2,0,0.4,0,0.6,0v2c-0.2,0-0.4,0-0.6,0V105.1z M492.3,105.1c0.2,0,0.4,0,0.6,0v2
		c-0.2,0-0.4,0-0.6,0V105.1z M491.3,105c0.2,0,0.4,0,0.6,0v2c-0.2,0-0.4,0-0.6,0V105z M490.5,105c0.2,0,0.3,0,0.5,0v2
		c-0.2,0-0.3,0-0.5,0V105z M489.4,104.9c0.2,0,0.5,0,0.7,0.1v2c-0.3,0-0.5,0-0.7-0.1V104.9z M488.4,104.8c0.2,0,0.4,0,0.6,0.1v2
		c-0.2,0-0.4,0-0.6-0.1V104.8z M487.5,104.7c0.2,0,0.4,0,0.6,0.1v2c-0.2,0-0.4,0-0.6-0.1V104.7z M486.5,106.6v-1.9
		c0.2,0,0.3,0,0.5,0.1v2C486.9,106.6,486.7,106.6,486.5,106.6C486.5,106.6,486.5,106.6,486.5,106.6z M486.7,107.6
		c-0.1-0.2-0.1-0.4-0.1-0.5c1.2,0.1,3.5,0.4,6.6,0.5c0,0,0,0,0,0c0,0,0,0,0,0c1.4,0.1,3,0.1,4.7,0.1c1.7,0,3.5,0,5.3-0.2
		c1.2-0.1,2.4-0.1,3.6-0.2c0,0,0,0,0,0c0,0,0,0,0,0c6.1-0.3,11.2-0.4,13-0.4c0,0.2,0,0.4-0.1,0.6c-2.2,0-9.1,0.1-16.6,0.6
		C495.4,108.6,488.6,107.9,486.7,107.6C486.7,107.6,486.7,107.6,486.7,107.6z M488.1,132.6c0.4-2.2,0.8-4.3,1.1-6
		c0.4-2.4,0.3-5.4-0.1-8.3c0.6,1.1,1.2,2.1,1.9,2.5c0,0,0.1,0,0.1,0c0.1,0,0.2,0,0.2-0.1c0.1-0.1,0-0.3-0.1-0.3
		c-0.9-0.5-1.7-2-2.4-3.9c-0.6-3.4-1.4-6.5-1.9-8.3c1.6,0.2,5.8,0.6,11,0.6c1.7,0,3.4,0,5.3-0.2c7.3-0.5,14-0.6,16.4-0.6
		c0,0.1,0,0.1-0.1,0.1c-1.1,2.4-4.5,9.8-1.8,19.9c0.1,0.5,0.3,1.1,0.4,1.7c-0.5-1-0.9-2.2-1.3-4.2c0-0.1-0.2-0.2-0.3-0.2
		c-0.1,0-0.2,0.2-0.2,0.3c0.5,2.8,1.2,4.2,1.8,5.3c0.1,0.2,0.2,0.4,0.3,0.6c0.6,3.3,1.2,7,1.5,10c-1.9,0-7.4,0-16.2,0.6
		c-7,0.5-13.6-0.2-16.4-0.6c-0.3,0-0.6-0.1-0.8-0.1C486.9,139,487.5,135.8,488.1,132.6z M487.1,145.8c-0.2,0-0.4,0-0.6-0.1
		c0,0,0,0,0,0v-2.7c0.2,0,0.3,0,0.5,0.1V145.8z M488.1,145.9c-0.2,0-0.4,0-0.6-0.1c0,0,0,0,0,0v-2.7c0.2,0,0.4,0,0.6,0.1V145.9z
		 M489,146c-0.2,0-0.4,0-0.6-0.1v-2.7c0.2,0,0.4,0,0.6,0.1V146z M490.1,146.1c-0.3,0-0.5-0.1-0.7-0.1v-2.7c0.2,0,0.5,0,0.7,0.1
		V146.1z M491,146.2c-0.2,0-0.3,0-0.5,0v-2.7c0.2,0,0.3,0,0.5,0V146.2z M492,146.3c-0.2,0-0.4,0-0.6-0.1v-2.7c0.2,0,0.4,0,0.6,0
		V146.3z M492.9,146.4c-0.2,0-0.4,0-0.6,0v-2.7c0.2,0,0.4,0,0.6,0V146.4z M493.9,146.4c-0.2,0-0.4,0-0.6,0v-2.7c0.2,0,0.4,0,0.6,0
		V146.4z M494.9,146.5c-0.2,0-0.4,0-0.6,0v-2.7c0.2,0,0.4,0,0.6,0V146.5z M495.8,146.5c-0.2,0-0.4,0-0.6,0v-2.7c0.2,0,0.4,0,0.6,0
		V146.5z M496.8,146.5c-0.2,0-0.4,0-0.6,0v-2.7c0.2,0,0.4,0,0.6,0V146.5z M497.8,143.9v2.7c-0.2,0-0.4,0-0.6,0v-2.7
		C497.4,143.8,497.6,143.8,497.8,143.9L497.8,143.9z M498.8,146.6c-0.2,0-0.4,0-0.6,0v-2.7v0c0.2,0,0.3,0,0.5,0c0,0,0.1,0,0.1,0
		V146.6z M499.7,146.5c-0.2,0-0.4,0-0.6,0v-2.7c0.2,0,0.4,0,0.6,0V146.5z M500.7,143.9v2.7c-0.2,0-0.4,0-0.6,0v-2.7
		c0.2,0,0.4,0,0.6,0V143.9z M501.1,143.9v-0.1c0.2,0,0.4,0,0.6,0v0v2.7c-0.2,0-0.4,0-0.6,0V143.9z M502.7,146.4c-0.2,0-0.4,0-0.6,0
		v-2.7v0c0.2,0,0.4,0,0.6,0V146.4z M503.6,146.4c-0.1,0-0.2,0-0.3,0c-0.1,0-0.2,0-0.3,0v-2.7c0.2,0,0.4,0,0.6,0V146.4z M487.2,142.6
		c-0.3,0-0.6-0.1-0.8-0.1c0-0.1,0-0.3,0.1-0.4c0.2,0,0.5,0.1,0.8,0.1c2.1,0.2,6.5,0.7,11.5,0.7c1.6,0,3.3-0.1,5-0.2
		c8.8-0.6,14.3-0.7,16.2-0.6c0,0.1,0,0.3,0,0.4c-1.6,0-5.7,0-12.2,0.4c0,0,0,0,0,0c0,0,0,0,0,0c-1.3,0.1-2.6,0.2-4,0.3
		C496.7,143.7,490,143,487.2,142.6z M504.6,146.3c-0.2,0-0.4,0-0.6,0v-2.7c0.2,0,0.4,0,0.6,0V146.3z M505.6,146.2
		c-0.2,0-0.4,0-0.6,0v-2.7c0.2,0,0.4,0,0.6,0V146.2z M506.6,146.2c-0.2,0-0.4,0-0.6,0v-2.7c0.2,0,0.4,0,0.6,0V146.2z M506.9,143.5
		c0.2,0,0.4,0,0.6,0v2.7v0c-0.2,0-0.4,0-0.6,0V143.5z M508.5,146.1c-0.2,0-0.4,0-0.6,0v0v-2.7c0.2,0,0.4,0,0.6,0V146.1z M509.5,146
		c-0.2,0-0.4,0-0.6,0v-2.7c0.2,0,0.4,0,0.6,0V146z M510.4,146c-0.2,0-0.4,0-0.6,0v-2.7c0.2,0,0.4,0,0.6,0V146z M511.4,145.9
		c-0.2,0-0.4,0-0.6,0v-2.7c0.2,0,0.4,0,0.6,0V145.9z M512.4,145.9c-0.2,0-0.4,0-0.6,0v-2.7c0.2,0,0.4,0,0.6,0V145.9z M513.4,145.8
		c-0.2,0-0.4,0-0.6,0v-2.7c0.2,0,0.4,0,0.6,0V145.8z M514.3,145.8c-0.2,0-0.4,0-0.6,0v-2.7c0.2,0,0.4,0,0.6,0V145.8z M515.3,143.1
		v2.7c-0.2,0-0.4,0-0.6,0v-2.7C514.9,143.1,515.1,143.1,515.3,143.1C515.3,143.1,515.3,143.1,515.3,143.1z M515.7,143.1
		c0.2,0,0.4,0,0.6,0v0v2.7c-0.2,0-0.4,0-0.6,0L515.7,143.1C515.7,143.1,515.7,143.1,515.7,143.1z M516.7,143.1L516.7,143.1
		c0.2,0,0.4,0,0.6,0v0v2.7c-0.2,0-0.4,0-0.6,0V143.1z M517.6,143.1L517.6,143.1c0.2-0.1,0.4-0.1,0.6-0.1v0.1v2.7c-0.2,0-0.4,0-0.6,0
		V143.1z M518.6,145.8v-2.7V143c0.2,0,0.4,0,0.6,0v0.1v2.7C519,145.8,518.8,145.8,518.6,145.8z M520,145.8c-0.1,0-0.2,0-0.4,0v-2.7
		V143c0.2,0,0.3,0,0.4,0c0,0.3,0.1,0.6,0.1,0.9C520.1,144.7,520,145.3,520,145.8z"/>
</g>
<g>
	<path class="st1" d="M432.4,120.4c-0.5-4.3-2.8-8.9-4.2-11.7c-0.4-0.7-0.7-1.3-0.8-1.7c-0.7-1.8-1.5-5.3-1.5-8c0-3,0.7-5.6,0.9-6.3
		c0.4-1.4,0.1-2.3-1-2.7c-0.2-0.1-0.4-0.2-0.7-0.3c0.3-0.1,0.5-0.4,0.6-0.8c0-0.2,0.1-0.7,0.2-1.2c0.1-0.8,0.6-2.5,0.8-3.3
		c0.1-0.5,0.1-0.9-0.1-1.2c-0.3-0.5-0.8-0.6-1.1-0.7c-0.5-0.1-6-0.3-6.8-0.3h-0.4c-0.8,0-6.4,0.2-6.8,0.3c-0.3,0.1-0.8,0.2-1.1,0.7
		c-0.2,0.3-0.2,0.8-0.1,1.2c0.2,0.6,0.7,2.5,0.8,3.3c0.1,0.6,0.2,1,0.2,1.4c0.1,0.3,0.2,0.5,0.5,0.6c-0.2,0.1-0.5,0.2-0.6,0.2
		c-1.6,0.6-1.1,2.2-1,2.7c0.2,0.7,0.9,3.2,0.9,6.3c0,2.7-0.8,6.2-1.5,8c-0.2,0.4-0.5,1-0.8,1.7c-1.4,2.7-3.7,7.3-4.2,11.7
		c-0.6,5.4-0.2,16.9,1.2,21.7c1.4,5,4,5.7,10.1,6h3.7l2,0c6-0.3,8.6-1,10-6C432.6,137.3,433,125.8,432.4,120.4z M411.5,84.1
		c0,0,0.1,0,0.2-0.1c0.4-0.1,5.3-0.2,6.5-0.2h0.4c1.2,0,6.1,0.2,6.5,0.2c0.1,0,0.2,0,0.1,0.1c-0.1,0.4-0.7,2.5-0.8,3.4
		c-0.1,0.4-0.1,0.7-0.2,0.9c-0.1,0-0.3,0-0.5,0h-0.6c-0.2,0-0.4,0-0.7,0c0,0,0,0,0,0h-8c0,0,0,0,0,0c0,0,0,0,0,0c-0.2,0-0.4,0-0.6,0
		H413c-0.2,0-0.3,0-0.4,0c0-0.2-0.1-0.6-0.2-0.9C412.2,86.7,411.8,84.9,411.5,84.1z M429.8,141.8c-1.1,4.1-2.7,4.6-8.6,4.9l-5.6,0
		c-5.9-0.3-7.5-0.8-8.6-4.9c-1.3-4.6-1.7-16-1.1-21.2c0.5-4.1,2.7-8.5,4.1-11.1c0.4-0.8,0.7-1.4,0.9-1.8c0.8-1.9,1.7-5.7,1.7-8.6
		c0-3.3-0.7-5.9-0.9-6.7c-0.2-0.6-0.1-0.8,0.1-0.8c0,0,2.8-1.1,3.2-1.4c0,0,0-0.1,0.1-0.1h7.1c0,0,0,0.1,0.1,0.1
		c0.4,0.3,3.1,1.4,3.3,1.5c0,0,0.1,0.2-0.1,0.8c-0.2,0.7-0.9,3.4-0.9,6.7c0,2.9,0.8,6.6,1.7,8.6c0.2,0.4,0.5,1,0.9,1.8
		c1.3,2.6,3.6,7.1,4.1,11.2C431.5,125.7,431,137.1,429.8,141.8z"/>
	<path class="st1" d="M420.8,121.7l0.1-0.4c0-0.1,0.1-0.2,0.1-0.4l0.1-0.1c0.1,0,0.4-0.1,0.5-0.3c0.1-0.2,0.2-0.5-0.1-1
		c0,0,0.1,0,0.1-0.1c0.3-0.1,0.4-0.6,0.3-0.8c0-0.1-0.1-0.1-0.1-0.2c0.2-0.2,1.1-0.8,3.9-2.9l0.3-0.2l-1.2-1.6l-0.3,0.2
		c-5.1,3.6-5.1,3.7-5.1,3.9c0,0.1,0,0.2,0.1,0.3c0,0.1,0.1,0.1,0.1,0.2c0,0,0,0,0,0c-0.1,0-0.1,0.1-0.2,0.1
		c-0.2,0.2-0.2,0.4-0.1,0.7c0,0.1,0.1,0.1,0.1,0.2c-0.1,0.1-0.4,0.2-0.4,0.5c-0.1,0.3,0,0.6,0.3,0.8c-0.1,0.2-0.1,0.4-0.2,0.7
		c-2.6-0.3-5.3,0.6-7.2,2.5c-3.4,3.4-3.4,9,0,12.4c1.7,1.7,3.9,2.5,6.2,2.5s4.5-0.8,6.2-2.5c3.4-3.4,3.4-9,0-12.4
		C423.1,122.8,422,122.1,420.8,121.7z M419.4,122.2c0.1-0.3,0.2-0.6,0.2-0.8c0.1-0.5,0.2-0.9,0.2-0.9l0.1-0.3l-0.3-0.1
		c-0.1,0-0.1-0.1-0.1-0.1s0.1-0.1,0.2-0.1c0.1,0,0.3-0.2,0.4-0.4c0-0.2-0.1-0.4-0.2-0.5c0.1,0,0.2-0.1,0.3-0.3
		c0.1-0.2,0.1-0.4,0-0.6c0,0,0-0.1-0.1-0.1c0.7-0.5,2.9-2.1,4.5-3.2l0.4,0.5c-0.9,0.6-3.7,2.7-3.7,2.7c-0.2,0.1-0.2,0.2-0.2,0.3
		c-0.1,0.2-0.1,0.4,0.1,0.6c0,0.1,0.1,0.1,0.1,0.2c-0.1,0-0.3,0.1-0.4,0.2c-0.1,0.1-0.1,0.4-0.1,0.5c0.1,0.1,0.1,0.2,0.2,0.3
		c0.1,0.1,0.1,0.2,0.1,0.2c0,0-0.1,0-0.2,0.1c-0.3,0.1-0.4,0.3-0.4,0.5c0,0.1-0.1,0.2-0.1,0.4l-0.1,0.4l-0.2,0.8l-0.1,0.4
		c-0.2,0.8-0.7,2.9-1,4.3l-0.2,0.7c-0.2-0.1-0.4-0.2-0.6-0.4C418.1,126.5,418.9,124,419.4,122.2z M423.4,135.5
		c-3.1,3.1-8,3.1-11.1,0c-3.1-3.1-3.1-8,0-11.1c1.5-1.5,3.5-2.3,5.6-2.3c0.3,0,0.5,0,0.8,0c-0.5,1.7-1.2,4.1-1.4,4.9
		c-1.3-0.6-2.3-0.7-2.4-0.7c-0.2,0-0.3,0.1-0.3,0.3c0,0.2,0.1,0.3,0.3,0.3c0.1,0,3.1,0,5,3.4c0.1,0.1,0.2,0.2,0.3,0.2
		c0.1,0,0.1,0,0.2,0c0.1-0.1,0.2-0.3,0.1-0.4c-0.4-0.7-0.8-1.2-1.3-1.6l0.1-0.3c0.3-0.3,1.1-1.1,2.1-0.6c0.1,0.1,0.3,0,0.4-0.1
		c0.1-0.1,0-0.3-0.1-0.4c-0.9-0.5-1.6-0.2-2.2,0.2l0-0.1c0.3-1.3,0.8-3.5,1-4.2l0.1-0.3c1.1,0.4,2,1,2.9,1.8
		C426.5,127.5,426.5,132.4,423.4,135.5z"/>
</g>
<path class="st2" d="M352.9,82.9l-2.5-2.4l-0.3,0.3c-8.7,8.8-8.7,9-8.6,9.2c0,0.2,0.1,0.4,0.2,0.5c0.1,0.1,0.2,0.2,0.3,0.3
	c0.1,0.1,0.1,0.1,0.2,0.2c0.1,0.1,0.1,0.1,0.1,0.1c0,0-0.1,0.1-0.1,0.1c-0.1,0.1-0.3,0.2-0.4,0.4c-0.2,0.3-0.2,0.8,0,1.1
	c0.1,0.1,0.2,0.3,0.4,0.4c0.1,0,0.1,0,0.1,0.1c0,0-0.1,0-0.1,0.1l-0.1,0.1c-0.2,0.2-0.6,0.4-0.6,0.9c-0.1,0.5,0.2,1,0.8,1.3
	l-0.8,9.8h-18.9v5h1.9l2.9,37.5h19.6l2.9-37.5h1.8v-5h-6.6l0.6-8.8c0-0.3,0-0.6,0.1-0.9c0-0.1,0-0.1,0-0.1c0,0,0,0,0.1-0.1l0.1-0.1
	c0.3-0.1,0.6-0.3,0.8-0.7c0.2-0.5,0-1.1-0.6-1.6c-0.1-0.1-0.2-0.1-0.3-0.2c0,0,0.1-0.1,0.2-0.1c0.1-0.1,0.2-0.1,0.4-0.2
	c0.4-0.4,0.5-1,0.2-1.4c-0.1-0.1-0.2-0.2-0.3-0.3c-0.1,0-0.1-0.1-0.1-0.1c0,0,0-0.1-0.1-0.1c0.4-0.4,3.9-4.1,6.8-7.2L352.9,82.9z
	 M345.4,146.2h-16.8l-2.8-36h22.3L345.4,146.2z M349.9,106.7v2h-26v-2H349.9z M345.2,89.8c-0.1,0.1-0.3,0.2-0.3,0.4
	c0,0.4,0.1,0.6,0.2,0.9c0.1,0.1,0.2,0.2,0.3,0.3c0.1,0.1,0.1,0.1,0.2,0.1c0,0.1,0,0.1,0,0.2c-0.1,0-0.1,0.1-0.2,0.1
	c-0.2,0.1-0.4,0.2-0.6,0.5c-0.1,0.3-0.1,0.6,0.1,0.9c0.1,0.2,0.3,0.3,0.4,0.4c0.3,0.2,0.4,0.5,0.3,0.6c0,0.1-0.2,0.2-0.4,0.3
	l-0.1,0.1c-0.5,0.3-0.5,0.5-0.6,1c0,0.3,0,0.6-0.1,0.9l-0.6,8.9h-1.7l0.9-10.4l-0.4-0.1c-0.3-0.1-0.5-0.2-0.5-0.4
	c0-0.1,0.1-0.2,0.3-0.4l0.1-0.1c0.1-0.1,0.5-0.4,0.5-0.8c0-0.4-0.3-0.6-0.5-0.8c-0.1-0.1-0.1-0.1-0.2-0.2c0,0,0.1-0.1,0.2-0.1
	c0.1-0.1,0.4-0.2,0.5-0.5c0.1-0.3,0-0.7-0.3-1c-0.1-0.1-0.1-0.2-0.2-0.3c0,0-0.1,0-0.1-0.1c0.9-1,5.1-5.4,8-8.3l1.2,1.2
	C349.3,85.4,345.3,89.7,345.2,89.8z"/>
<g>
	<path class="st2" d="M341.8,122.6c0.1,0.4,0.2,0.8,0.2,1.2c0,1.3-0.7,2.5-1.7,3.3c-1.8,1.3-4.3,1.3-7.8,2.4
		c1.1,1.3,2.7,2.1,4.4,2.1c3.2,0,5.8-2.6,5.8-5.8C342.8,124.6,342.4,123.5,341.8,122.6"/>
	<path class="st2" d="M340.4,121.1c-1-0.7-2.2-1.2-3.5-1.2c-3.2,0-5.8,2.6-5.8,5.8c0,1.3,0.4,2,0.9,3
		C336.1,127.6,339.3,125,340.4,121.1"/>
</g>
<g>
	<path class="st3" d="M476.2,121l-0.4-1.1l0.1-0.2c0-0.1,0-0.2,0-0.2c0-0.4-0.3-1.3-0.8-1.9c-0.5-0.6-1.7-0.7-2.3-0.7h-27
		c-0.6,0-1.8,0.1-2.3,0.7c-0.4,0.5-0.8,1.5-0.8,1.9c0,0.1,0,0.2,0,0.2l0.1,0.2l-0.4,1.1c-0.1,0.2-0.1,0.5,0.1,0.7
		c0.1,0.2,0.4,0.3,0.6,0.3h1c0.6,6.8,2,22.6,1.9,23.7h0c0,0.2,0,0.4,0.1,0.5c0.3,0.5,1,0.9,2.4,1.1c2.3,0.4,7.2,0.6,8.4,0.6h4.6h0
		c0,0,0,0,0,0c0,0,0.1,0,0.2,0c0.2,0,0.4,0,0.7,0c1.9-0.1,6-0.3,7.5-0.6c1.4-0.3,2.2-0.6,2.4-1.1c0.1-0.1,0.1-0.3,0.1-0.5h0
		c0-1.1,1.3-16.9,1.9-23.8h1c0.3,0,0.5-0.1,0.6-0.3C476.2,121.5,476.3,121.2,476.2,121z M444.2,119.4c0.1-0.2,0.2-0.6,0.4-0.8
		c0.1-0.1,0.7-0.2,1.2-0.2h27c0.5,0,1.1,0.1,1.2,0.1c0.2,0.2,0.3,0.6,0.4,0.8l-0.1,0.3c-0.1,0.2-0.1,0.4,0,0.5l0.1,0.3h-0.6
		c0,0-0.1,0-0.1,0c-0.4-0.1-0.8-0.1-0.9-0.1h-27c-0.2,0-0.5,0-0.9,0.1c0,0-0.1,0-0.1,0h-0.6l0.1-0.3c0.1-0.2,0.1-0.3,0-0.5
		L444.2,119.4z M471.1,145.5c-0.2,0.1-0.5,0.2-1.3,0.4c-1.4,0.3-5.6,0.4-7.3,0.5c-0.4,0-0.6,0-0.9,0.1h0c0,0,0,0,0,0H457
		c-1.3,0-6.1-0.2-8.1-0.6c-0.8-0.1-1.2-0.3-1.3-0.4c-0.1-2.7-1.8-21.9-2-24.1c0.1,0,0.2,0,0.3,0h27c0.1,0,0.2,0,0.3,0
		C472.8,123.7,471.2,142.8,471.1,145.5z"/>
	<g>
		<path class="st3" d="M461.1,130.9c0.2,0,0.4,0,0.4,0l0.3,0.4l0.1-0.1l-0.3-0.4l-0.3,0c0,0-0.2-0.2-0.3-0.2c-0.1,0-0.5,0-0.5,0
			l-0.3,0.3l0.1,0.2c-0.3,0.3-0.3,0.7-0.3,0.7l0.2,0l0,0.3h0.1c0,0,0.1,0.2,0.2,0.3c0.1,0.1,0.5,0.1,0.8,0c0,0-0.2,0-0.3,0
			c-0.1,0-0.2-0.1-0.2-0.1l-0.1-0.2c0,0-0.1,0-0.1,0c0,0,0.1-0.1,0.2-0.1c0,0.1,0,0.1,0.1,0.2l0.2,0l0-0.1l0.1,0c0,0,0-0.1,0-0.1
			c0,0,0.1,0,0.2,0.1c0,0,0.1,0,0.1,0l0,0.2c0,0,0.1-0.1,0.3-0.1c0-0.1,0.1-0.4,0-0.3c-0.1,0.1-0.1-0.1-0.2-0.2
			c-0.1-0.1-0.2-0.1-0.2-0.1c0.1,0.1,0.1,0.2,0.1,0.2c-0.2-0.1-0.5-0.1-0.7,0c0,0,0.1-0.1,0.2-0.2c-0.1,0-0.2,0-0.2,0l0.1-0.3
			C460.8,130.9,460.9,130.9,461.1,130.9z"/>
		<path class="st3" d="M460.7,138.9c-0.3-0.3-0.3-0.3-0.3-0.3s-0.2,0.2,0.4,1c0.6,0.9,2.1,1.4,2.1,1.4S461.5,139.8,460.7,138.9z"/>
		<path class="st3" d="M464.6,140.6c-0.1,0.1-0.2,0.2-0.3,0.2c-0.1-0.1-0.3-0.2-0.4-0.2c-0.5-0.3-1.1-1-1.1-1
			C463.1,139.7,463.8,140.2,464.6,140.6z"/>
		<path class="st3" d="M456,131.8c0,0.5,0.5,0.9,0.5,0.9s0.1-0.6,0.1-1c-0.2-0.3,0-1,0-1C456.2,131,455.9,131.5,456,131.8z"/>
		<path class="st3" d="M462.8,132.4c-0.3-0.5-0.4-0.9-0.4-1.2c0-0.4-0.4-0.6-0.4-0.6s0.2,0.5,0.1,1.1c-0.1,0.6,0.2,0.8,0.2,1.1
			c0,0.2,0,0.5-0.1,0.8C462.5,133.4,463,132.9,462.8,132.4z"/>
		<path class="st3" d="M460.8,137.6l-0.1,0.1c0,0,0.4,0.5,0.7,0.6c-0.4-0.4-0.5-0.9-0.5-0.9L460.8,137.6z"/>
		<path class="st3" d="M466.5,138.9c-0.4,0.5-0.8,0.9-1.3,1.3c-0.8-0.5-1.5-1-1.9-1.4c-0.8-0.6-2-1.6-2-1.6s0.2-0.1,0.3-0.2
			c0.1-0.1,0-0.4,0-0.3c-0.1,0.1-0.3,0.2-0.3,0.2l0-0.9l0.1-0.2c0.5-0.4,0.5-1,0.6-1.5c0-0.1,0.1-0.3,0.1-0.4c0,0.1,0.1,0.2,0.1,0.2
			c0.2,0,0.4-0.1,0.5-0.2c-0.2,0.3-0.4,0.8-0.2,1.2c0.2,0.4,1,0.5,1.3,0.2c0.1,0.6-0.6,0.7-0.6,0.7s0.2,0.2,0.6,0.1
			c0.7-0.1,0.8-0.6,0.8-0.8c0,0,0.1,0.1,0.2,0.2c0.2,0.5-0.2,1-0.5,1.1c-0.2,0.5-0.8,0.8-1.3,0.5c-0.5,0.1-1-0.2-1-0.2l0,0.5
			C462.4,137.5,464.8,138.3,466.5,138.9z"/>
		<polygon class="st3" points="459.5,137.5 459.8,138.2 459.7,137.5 		"/>
		<path class="st3" d="M459.6,136.4c0,0,0.3,0,0.3-0.1c0-0.1-0.3-0.2-0.3-0.2L459.6,136.4z"/>
		<path class="st3" d="M460.8,133.3c0,0-0.1-0.4-0.4-0.4l0,0.1c0.1,0.1,0.2,0.3,0.1,0.4L460.8,133.3z"/>
		<path class="st3" d="M465.3,127.4c-0.9-0.5-1.8-0.1-2.8,0.3c-1.4,0.5-4.3,1.1-5.8,0.7c2.4,0.1,5.6-0.9,5.6-0.9s0-0.1,0-0.2
			c0-0.1,0.1-0.2-0.1-0.3c-0.1-0.1-0.3-0.2-0.7-0.4c-0.6-0.2-1.4-0.4-2.4-0.3c-1.5,0.1-2.3,0.4-3,0.8c-0.2,0.1-0.6,0.3-0.5,0.6
			c0,0.1,0.1,0.3,0.1,0.4c-2-0.3-3.7-0.1-4,1.6c-0.3,1.8,1.2,2.9,2.3,3.4c0,0,0.1,0,0.1,0.1l-0.2-0.5c0.1,0.1,0.6,0.4,0.7,0
			c0.1-0.2-0.1-0.5,0.1-0.9c0.2-0.6,0.7-0.5,0.8-0.8c0-0.2,0.1-0.3,0.2-0.5c0.1,0,0.7,0.4,1.5-0.1l0.1,0.5c0,0-0.1,0.2-0.2,0.4
			c0,0,0,0.1,0.1,0.1c0,0,0.2-0.1,0.3-0.2c-0.1,0.3-0.1,0.4-0.3,0.5c0,0.2-0.1,0.4-0.1,0.4c0,0,0.3-0.2,0.5,0
			c-0.1,0.1-0.4,0.2-0.5,0.6c-0.1,0.4,0.1,0.8,0.2,1.1c0.1,0.2,0.1,1,0.1,1.3c0.1,0.2,0.1,0.5,0.4,0.6c-0.1-0.1-0.7-0.3-0.9-0.8
			c-0.2-0.3-0.2-1-0.2-1.4c0,0,0,0,0,0v-0.1c0,0,0,0,0,0v0c0,0,0,0,0,0l-0.4,0.3c0,0,0.2,0.6-0.3,1c-0.5,0.4-1.2,0.2-1.4-0.5
			c-0.1,0.2,0,0.7,0.2,0.9c-0.6-0.1-1-0.8-0.8-1.4c0,0.1-0.1,0.1-0.1,0.2c-0.2,0.4-0.1,1.3,0.4,1.5c-0.2,0.8,0.4,1.1,0.7,1.2
			c0.1,0.5,1.1,0.5,1.4,0.3l-0.2,0.6c0,0-2.2,0.6-4.1,1.2c1.7,2.2,4.3,3.6,7.3,3.6c1.4,0,2.8-0.3,4-0.9c-0.1,0-0.1,0-0.2,0
			c-0.6,0-1.4,0.4-2.1,0.4c-0.7-0.1-1.8-1.4-2-2.5c-0.2-1.1-0.2-1.6-0.2-1.6s-0.9-0.4-1.6-0.7c-0.4-0.2-0.5-0.4-0.5-0.5
			c0-0.1,0-0.3,0-0.3s0.2,0.2,0.7,0.5c0.4,0.2,0.8,0.5,1.4,0.6c0-0.1,0.1-0.2,0.2-0.2c0.1,0,0.6,0.1,0.6,0.1s0-0.1,0.1-0.1
			c0.1-0.1,0.6-0.1,0.6-0.1s0-0.1,0.1-0.3c0.1-0.2,0.5-0.5,0.5-0.5l-0.1,0c0,0-0.2,0.2-0.6,0.4c-0.4,0.2-1,0.1-1.3,0
			c-0.3-0.1-0.5-0.3-0.5-0.3s0.1-0.1,0.2,0c0.1,0.1,0.5,0.1,0.5,0.1s-0.1-0.2,0-0.5c0.1-0.3,0.5-0.4,0.8-0.3l0-0.5
			c0,0-0.5,0.1-0.8-0.1c0.1-0.2,0.4-0.3,0.6-0.3c0.2,0,0.7-0.1,0.7-0.1c0.1,0,0.2-0.1,0.2-0.1s0.2,0,0.2,0.1c0,0.2,0.1,0.4,0.1,0.5
			c0.2-0.2,0.5-0.8,0.5-1.2c0,0-0.3,0.2-0.6-0.1c0,0-0.1,0.1-0.1,0.2c0,0,0.2,0.2,0.1,0.3c0,0.1-0.1,0.1-0.3,0.1c-0.2,0-0.4,0-0.5,0
			c-0.1,0-0.2,0.1-0.2,0.1s-0.2,0-0.3-0.1c-0.1,0-0.2,0-0.2,0l0.2-0.5l0.2-0.1l0,0.3l0.2-0.1l0-0.3c0,0,0.1,0,0.1-0.1
			c0.1-0.1,0.3,0,0.3,0s0.2-0.1,0.1-0.2c-0.1-0.1-0.3-0.1-0.4-0.1c-0.2,0.1-0.3,0-0.4-0.2c-0.1-0.2,0-0.4,0.1-0.6l-0.1,0
			c0,0-0.1-0.8,0-1.1c0-0.3-0.2-0.4-0.3-0.5c-0.1-0.1-0.3-0.1-0.3-0.1l0.1-0.1c0,0-0.4-0.1-0.6-0.2c-0.1,0-0.4,0-0.5,0.1
			c0-0.1,0.2-0.4,0.2-0.7c0.6-0.4,3.2-0.4,3.8,0.2l-0.1-0.3h0c0.8-0.1,1.2,0.5,1.3,1.1c0.1,0.6,0.5,0.6,0.8,1c0.2,0.3,0.3,0.6,0.4,1
			c0.3-0.2,0.5-0.3,0.7-0.5C467.4,130.4,466.8,128.1,465.3,127.4z M454.8,135.8l-0.1-0.4c0.3,0.2,0.8,0.2,1.1-0.1
			C455.7,135.8,455.2,136,454.8,135.8z M458.8,133.2c0.1-0.1,0.2-0.2,0.2-0.2s-0.1,0.3,0,0.5l-0.2,0
			C458.8,133.4,458.8,133.3,458.8,133.2z M458.2,135.4c-0.3-0.2-0.3-0.9-0.2-1.2c0.2,0,0.4-0.2,0.4-0.2c0,0-0.1,0.4-0.2,0.5
			c0.1,0.1,0.3,0.1,0.2,0.2c0,0.1,0,0.3,0.1,0.4C458.4,135,458.2,135.3,458.2,135.4z M458.4,132.8c-0.3,0.3-0.7,0.4-0.7,0.4
			s-0.3-0.4,0.2-0.8c0.1-0.1,0.1-0.1,0.2-0.1c0,0-0.1,0-0.2,0c0-0.1,0-0.2,0-0.2c-0.1,0-0.2,0-0.2-0.1c0,0,0-0.1,0.1-0.1
			c0,0.1,0.1,0.1,0.1,0.2h0.3c0-0.1,0-0.2,0-0.2l0.1,0c0,0,0-0.1,0-0.1c0,0,0.1,0.1,0.1,0.1c0,0.1,0,0.1,0,0.1c0,0,0.2,0,0.2,0
			s-0.1,0.2-0.1,0.3C458.8,132.3,458.6,132.6,458.4,132.8z M458.3,131.4c0.1,0,0.2,0,0.2,0.1c0,0,0.1,0.1,0,0.1
			c-0.1-0.1-0.3-0.1-0.4-0.1C458.1,131.5,458.2,131.4,458.3,131.4z M458,131c0,0,0.1,0.2-0.1,0.2c-0.2,0-0.4,0.1-0.4,0.2
			c0-0.2,0.1-0.4,0.2-0.4C457.7,131.1,458,131,458,131z"/>
	</g>
</g>
<g>
	<path class="st4" d="M390.5,142.6c-0.1-0.1-0.5-0.5-0.7-0.7v-0.2l0.7-0.6c0.2-0.1,0.3-0.5,0.3-0.7c0-1.8,0-2,0-2.2
		c0-0.1-0.1-0.2-0.1-0.4c-0.1-0.2-0.1-0.4-0.1-0.6l0-0.3c0-0.3,0-0.6,0-1.1c0-0.3-0.3-1.2-0.5-2.2c-0.2-0.9-0.5-1.8-0.6-2.3
		c-0.2-0.9-0.2-1.5-0.2-2.4c0-0.4-0.1-2.2-0.4-2.5c0,0-0.1-0.2-0.1-0.6c0-0.2,0-0.3,0-0.4c0.3-0.4,0.4-0.9,0.4-1.4l0-0.3
		c0.1-0.4,0.2-3,0.3-3.7c0.3-0.7,0.8-2.5,1.2-4.2v-1.7l0.3-0.9c0-0.1,0-0.1,0-0.2v-2c0-0.9-0.6-1.5-1.1-1.8c0.4-0.4,0.7-1.2,0.7-2.8
		c0-2.2-0.6-3.3-0.9-3.7c-0.7-3.1-3.5-5.3-5-6.5l-0.3-0.2c-0.8-0.6-1.1-1-1.3-1.1v-0.4c0.4-0.2,0.7-0.5,0.8-0.9
		c0.1-0.1,0.1-0.3,0.1-0.4c0.2-0.2,0.3-0.4,0.2-0.7c0,0-0.1-0.8-0.1-1.1c0-0.3-0.2-0.6-0.3-0.8c0-0.5,0-1.3,0-1.8
		c-0.1-0.9-0.7-1.5-1.6-1.7c-0.7-0.1-4.2-0.3-4.8-0.3c-0.4,0-3.9,0.2-4.6,0.3c-0.9,0.2-1.5,0.8-1.6,1.7c-0.1,0.5,0,1.3,0,1.8
		c-0.2,0.2-0.3,0.5-0.3,0.8c0,0.2-0.1,1.1-0.1,1.1c0,0.2,0,0.5,0.2,0.7c0,0.1,0,0.3,0.1,0.5c0.1,0.2,0.2,0.7,0.8,0.9v0.4
		c-0.2,0.2-0.5,0.5-1.3,1.1l-0.3,0.2c-1.5,1.2-4.3,3.5-5,6.5c-0.3,0.4-0.9,1.6-0.9,3.7c0,1.7,0.3,2.5,0.7,2.8
		c-0.4,0.3-1.1,0.9-1.1,1.8v2c0,0.1,0,0.1,0,0.2l0.3,0.9l0,1.8c0.4,1.5,0.9,3.3,1.2,4c0,0.7,0.2,3.3,0.3,3.7l0,0.3
		c0,0.5,0.1,1.1,0.4,1.4c0,0.1,0,0.2,0,0.4c0,0.4,0,0.5,0,0.5c-0.4,0.4-0.5,2.1-0.5,2.7c0,0.8,0,1.4-0.2,2.3
		c-0.1,0.5-0.3,1.4-0.6,2.3c-0.2,1-0.5,1.9-0.5,2.2c-0.1,0.4-0.1,0.7,0,1.1l0,0.3c0,0.1-0.1,0.4-0.1,0.6c-0.1,0.2-0.1,0.3-0.1,0.4
		c0,0.1,0,0.4,0,2.3c0,0.2,0.1,0.4,0.3,0.6l0.7,0.6v0.2c-0.2,0.2-0.5,0.6-0.7,0.7c-0.6,0.5-0.5,4.1-0.4,4.3c0.3,0.5,0.8,0.9,2.6,1
		c2.8,0.2,5.8,0.3,8.9,0.3h3.7c3.2,0,6.2-0.1,8.9-0.3c1.8-0.1,2.3-0.5,2.6-1C391,146.7,391.1,143.2,390.5,142.6z M372.8,88.9
		c0-0.3,0.1-0.4,0.4-0.5c0.5-0.1,3.7-0.3,4.4-0.3c0.6,0,3.8,0.2,4.3,0.3c0.3,0.1,0.4,0.2,0.4,0.5c0.1,0.5,0,1.6,0,1.9
		c0,0,0,0.1,0,0.1h-9.6c0,0,0-0.1,0-0.1C372.8,90.5,372.7,89.4,372.8,88.9z M372.4,91.6h10.2c0,0.2,0,0.4,0.1,0.6l0,0
		c-0.2,0.2-0.3,0.5-0.2,0.8c0,0,0,0,0,0c-0.3,0-0.5,0.2-0.6,0.4h-8.5c-0.1-0.2-0.3-0.4-0.6-0.4c0,0,0,0,0,0c0.1-0.3,0-0.6-0.2-0.8
		l0,0C372.4,92,372.4,91.8,372.4,91.6z M366.6,103.5c0.1-0.1,0.1-0.2,0.2-0.3c0.5-2.6,3.1-4.7,4.5-5.8l0.3-0.2
		c1-0.8,1.6-1.4,1.8-1.8c0-0.1,0.1-0.2,0.1-0.3V95h8.3v0.1c0,0.1,0,0.2,0.1,0.3c0.1,0.3,0.7,0.9,1.8,1.8l0.3,0.2
		c1.4,1.1,4,3.2,4.5,5.8c0,0.1,0.1,0.2,0.1,0.3c0,0,0.7,0.9,0.7,3c0,0.2,0,0.4,0,0.6H366c0-0.2,0-0.3,0-0.6
		C366,104.4,366.6,103.5,366.6,103.5z M366.2,108.2c0-0.1-0.1-0.2-0.2-0.6h23c-0.1,0.3-0.1,0.5-0.2,0.6c-0.3,0.1-0.5,0.4-0.5,0.7
		v0.2h-21.7v-0.2C366.7,108.6,366.5,108.3,366.2,108.2z M365.7,138.5c0-0.1,0-0.1,0.1-0.2c0.1-0.3,0.2-0.7,0.2-1l0-0.3
		c0-0.2,0-0.5,0-0.8c0-0.2,0.3-1.1,0.5-2c0.2-0.9,0.5-1.9,0.6-2.4c0.2-1,0.2-1.7,0.3-2.7c0-0.7,0.1-1.4,0.2-1.7
		c0.2-0.2,0.3-0.7,0.3-1.4c0-0.7-0.1-1.1-0.4-1.4c0-0.1-0.1-0.4-0.1-0.6l0-0.4c0-0.3-0.2-2.5-0.3-3.8c0-0.1,0-0.2-0.1-0.3
		c-0.2-0.3-0.7-2.2-1.1-3.6v-1.8c0-0.1,0-0.1,0-0.2l-0.3-0.9v-1.9c0-0.2,0.4-0.6,0.7-0.7c0.1-0.1,0.2-0.2,0.3-0.3h21.9
		c0.1,0.1,0.2,0.2,0.3,0.3c0.2,0.1,0.7,0.5,0.7,0.7v1.9l-0.3,0.9c0,0.1,0,0.1,0,0.2l0,1.6c-0.4,1.6-0.9,3.5-1.1,3.8
		c-0.1,0.1-0.1,0.2-0.1,0.4c-0.1,1.3-0.2,3.4-0.3,3.8l0,0.4c0,0.2,0,0.5-0.1,0.5c-0.3,0.2-0.4,0.7-0.4,1.4c0,0.7,0.2,1.2,0.3,1.4
		c0.1,0.3,0.2,1.1,0.2,1.9c0,0.8,0.1,1.5,0.3,2.5c0.1,0.5,0.3,1.5,0.6,2.4c0.2,0.9,0.4,1.8,0.5,2c0,0.3,0,0.6,0,0.8l0,0.3
		c0,0.4,0.1,0.8,0.2,1.1c0,0.1,0.1,0.1,0.1,0.2c0,0.1,0,0.4,0,0.7c0-0.1-0.1-0.2-0.3-0.2h-23.4c0,0,0,0-0.1,0
		C365.7,138.7,365.7,138.5,365.7,138.5z M365.7,139.6h23.4c0.1,0,0.2-0.1,0.3-0.2c0,0.3,0,0.5,0,0.8l-0.7,0.6
		c-0.1,0.1-0.2,0.3-0.2,0.5h-21.7c0-0.2-0.1-0.4-0.2-0.5l-0.7-0.6C365.7,140,365.7,139.8,365.7,139.6
		C365.7,139.6,365.7,139.6,365.7,139.6z M388.2,146.5c-2.7,0.2-5.7,0.3-8.8,0.3h-3.7c-3.1,0-6.1-0.1-8.8-0.3
		c-0.8-0.1-1.2-0.2-1.3-0.2c0-0.6,0-2.2,0.1-2.7c0.3-0.3,0.8-0.9,0.8-0.9c0.1-0.1,0.1-0.3,0.2-0.4h21.7c0,0.1,0.1,0.3,0.2,0.4
		c0,0,0.5,0.6,0.8,0.9c0.1,0.5,0.1,2.1,0.1,2.7C389.3,146.4,389,146.5,388.2,146.5z"/>
	<path class="st4" d="M378,128c2,0,3.8-0.5,5.3-1.6v-6.2h-3.3l-2.5,2.5h2.3v1.9c-0.5,0.2-0.9,0.3-1.4,0.3c-0.9,0-1.7-0.3-2.3-0.8
		l-1.5,1.5l0.8-2.1c-0.5-0.7-0.8-1.6-0.8-2.6c0-2.1,1.4-3.7,3.4-3.7c0.5,0,1,0.1,1.4,0.2l2.8-0.9l-1,1.2l1.5-0.5l-1,1l-0.1,0.1h1.3
		v-4.5H381v0.7c-0.9-0.3-1.8-0.5-2.8-0.5c-4.3,0-7.3,3-7.3,7.1C370.9,125.2,373.8,128,378,128z"/>
	<path class="st4" d="M382,117.9l-1.3,0.5l1.1-1.3l-4,1.3l-1.6,2.4l1-0.4c0,0-1.5,3.7-1.7,4.2L382,117.9z M376.7,120.3l1.1-1.7l3-1
		l-1.1,1.3l1.2-0.4l-4.8,4.9l1.4-3.4L376.7,120.3z"/>
</g>
<g>
	<path class="st2" d="M24,18.2h15.5c6,0,8.3,2.1,8.3,7.2c0,4.9-2.3,7-8.3,7H24V18.2z M0,69.9h24v-21h25.7c17,0,23.2-10,23.2-23
		c0-15-6.3-23.6-23.3-23.6H0V69.9z"/>
	<path class="st2" d="M80.8,2.4h64.6v16.5h-40.6v9.1h37.7v16.5h-37.7v9.1h40.6v16.5H80.8V2.4z"/>
	<path class="st2" d="M179.5,18.2h15.5c6,0,8.3,2.1,8.3,7.2c0,4.9-2.3,7-8.3,7h-15.5V18.2z M155.4,69.9h24v-21h25.7
		c17,0,23.2-10,23.2-23c0-15-6.3-23.6-23.3-23.6h-49.5V69.9z"/>
	<path class="st2" d="M251.6,41.2c-11.7-2-16.6-9.5-16.6-19C234.9,4.7,250.4,0,270.1,0c27.1,0,38.2,7.9,39.1,22.1h-27.9
		c0-2.7-1.5-4.4-3.7-5.4c-2.1-1-4.8-1.4-7.5-1.4c-7.2,0-9.6,2-9.6,4.8c0,1.9,0.8,3.1,3.1,3.5l28.7,4.7c12.1,2,19.6,8.2,19.6,19.7
		c0,16.5-12.1,24.2-39.1,24.2c-18.5,0-38.6-2.8-38.7-22.7H263c0.1,2.3,0.8,3.8,2.6,4.8c1.8,0.9,4.4,1.4,8.2,1.4
		c7.5,0,9.5-2.3,9.5-5.5c0-2-1.1-4-4.3-4.5L251.6,41.2z"/>
	<path class="st2" d="M319.7,2.4h24v67.5h-24V2.4z"/>
	<path class="st2" d="M432.7,43.6c-1.5,8.9-4.3,16.1-10.2,21c-5.9,4.9-15.1,7.7-29.7,7.7c-14.6,0-41.5-1.1-41.5-36.1
		c0-35,27-36.1,41.5-36.1c14.5,0,36.8,2.1,39.9,28.8h-27.1C405,24,402.1,17,392.8,17c-9.8,0-16,5.4-16,19.1c0,13.7,6,19.1,14.8,19.1
		c7.6,0,12.1-3.5,14-11.6H432.7z"/>
	<path class="st2" d="M464.1,36.1c0-13.7,6.2-19.1,16-19.1c9.8,0,16,5.4,16,19.1c0,13.7-6.2,19.1-16,19.1
		C470.3,55.2,464.1,49.9,464.1,36.1z M438.6,36.1c0,35,27,36.1,41.5,36.1c14.6,0,41.5-1.1,41.5-36.1c0-35-27-36.1-41.5-36.1
		C465.6,0,438.6,1.1,438.6,36.1z"/>
</g>
<g>
	<g>
		<path class="st2" d="M4.5,147.1H0v-33c0-8.8,2.5-11.3,11.2-11.3H12v4.2h-0.5c-6.2,0-7,0.9-7,7.2v2.2H12v4.1H4.5V147.1z"/>
	</g>
	<path class="st2" d="M27.8,115.8c-8.9,0-15.9,7-15.9,15.9c0,8.9,7,15.9,15.9,15.9c8.9,0,15.9-7,15.9-15.9
		C43.8,122.8,36.8,115.8,27.8,115.8z M27.8,143.5c-6.4,0-11.4-5.2-11.4-11.8c0-6.6,5-11.8,11.4-11.8c6.4,0,11.4,5.2,11.4,11.8
		C39.3,138.3,34.2,143.5,27.8,143.5z"/>
	<path class="st2" d="M63.3,115.8c-8.9,0-15.9,7-15.9,15.9c0,8.9,7,15.9,15.9,15.9c8.9,0,15.9-7,15.9-15.9
		C79.2,122.8,72.2,115.8,63.3,115.8z M74.7,131.7c0,6.6-5,11.8-11.4,11.8c-6.4,0-11.4-5.2-11.4-11.8c0-6.6,5-11.8,11.4-11.8
		C69.7,119.9,74.7,125.1,74.7,131.7z"/>
	<path class="st2" d="M110.2,102.7v18.5c-2.6-3.4-7-5.5-11.4-5.5c-8.8,0-15.8,7-15.8,15.9c0,8.9,6.9,15.9,15.8,15.9
		c4.4,0,8.8-2.2,11.4-5.5v4.9h4.3v-44.3H110.2z M110.5,131.7c0,6.6-5.1,11.8-11.6,11.8c-6.3,0-11.5-5.3-11.5-11.8
		c0-6.5,5.2-11.8,11.5-11.8C105.4,119.9,110.5,125.1,110.5,131.7z"/>
	<path class="st2" d="M132.2,129.3l-0.4-0.1c-4-1-7.5-1.9-7.5-4.8c0-2.9,2.6-4.7,6.5-4.7c3.2,0,5.7,1.1,7.7,3.4l0.3,0.4l3.4-2.8
		l-0.4-0.4c-2.5-2.9-6.5-4.6-11-4.6c-7.2,0-10.9,4.4-10.9,8.8c0,6.2,6.1,7.8,10.1,8.8l0.8,0.2c3.9,0.9,7.3,1.8,7.3,4.8
		c0,2.5-1.9,5.4-7.1,5.4c-3.5,0-6.7-1.6-8.9-4.5l-0.3-0.5l-3.5,2.8l0.3,0.4c2.7,3.6,7.3,5.8,12.3,5.8c7.6,0,11.6-4.7,11.6-9.4
		C142.5,131.9,136.5,130.4,132.2,129.3z"/>
	<path class="st2" d="M176.9,131.3c0-9-6.6-15.6-15.7-15.6c-9.1,0-15.9,6.9-15.9,16.1c0,9.3,6.6,15.8,16.1,15.8
		c6.8,0,11.7-3.1,14.6-9.3l0.2-0.5l-4-1.9l-0.2,0.5c-2,4.6-5.7,7.1-10.7,7.1c-6.4,0-11-4.1-11.7-10.2h27.3V131.3z M149.8,129.2
		c1.2-5.5,5.7-9.3,11.4-9.3c5.9,0,10.2,3.6,11.1,9.3H149.8z"/>
	<path class="st2" d="M194.4,116.4c-3.9,0-7.1,1.6-9.1,4.3v-4.3h-4.4v30.7h4.5v-16c0-6.9,3.1-10.5,9.1-10.5h3.3v-4.2H194.4z"/>
	<polygon class="st2" points="224.2,116.4 215,140.4 205.8,116.4 200.9,116.4 212.9,147.1 217,147.1 229,116.4 	"/>
	<g>
		<rect x="232.5" y="116.4" class="st2" width="4.5" height="30.7"/>
		<rect x="232.5" y="102.7" class="st2" width="4.5" height="9.7"/>
	</g>
	<path class="st2" d="M268.1,135.8l-0.2,0.5c-1.9,4.6-5.7,7.2-10.4,7.2c-6.5,0-11.7-5.2-11.7-11.8c0-6.6,5-11.8,11.5-11.8
		c4.7,0,8.5,2.5,10.5,6.9l0.2,0.5l4.1-1.7l-0.2-0.5c-2.4-5.8-8-9.3-14.5-9.3c-9,0-16,7-16,15.9c0,8.9,7.1,15.9,16.1,15.9
		c6.6,0,12-3.6,14.6-9.6l0.2-0.5L268.1,135.8z"/>
	<path class="st2" d="M306.6,131.3c0-9-6.6-15.6-15.7-15.6c-9.1,0-15.9,6.9-15.9,16.1c0,9.3,6.6,15.8,16.1,15.8
		c6.8,0,11.7-3.1,14.6-9.3l0.2-0.5l-4-1.9l-0.2,0.5c-2,4.6-5.7,7.1-10.7,7.1c-6.4,0-11-4.1-11.7-10.2h27.3V131.3z M279.6,129.2
		c1.2-5.5,5.7-9.3,11.4-9.3c5.9,0,10.2,3.6,11.1,9.3H279.6z"/>
</g>
</svg>
