<?xml version="1.0" encoding="utf-8"?>
<!-- Generator: Adobe Illustrator 19.0.0, SVG Export Plug-In . SVG Version: 6.00 Build 0)  -->
<svg version="1.1" id="Layer_1" xmlns="http://www.w3.org/2000/svg" xmlns:xlink="http://www.w3.org/1999/xlink" x="0px" y="0px"
	 viewBox="0 0 120 120" style="enable-background:new 0 0 120 120;" xml:space="preserve">
<style type="text/css">
	.st0{fill:#28458E;}
	.st1{fill:#0096D6;}
	.st2{fill:#EB7B30;}
	.st3{fill:#00984A;}
	.st4{fill:#DF002C;}
</style>
<path class="st0" d="M109.6,90.1c-2.5,3.1-5.7,6.1-9.4,9.1c-6.8-39.1-35.5-73.3-55.8-83.2L44,16.2C64.4,33,88.8,65.5,98.3,100.7
	c-4.5,3.3-9.8,6.4-15.6,8.9c-19.3-22-37.3-64.3-43-91.2l-0.6,0.2c0.1,26.1,18.7,70.4,41.3,92c-5,2-10.4,3.5-16.1,4.4
	c-21.7-8.6-37.1-36.1-37.1-64.2c0-18.4,5.6-29.8,6.7-32.1l-0.5-0.2c-1.3,2-9.5,13.4-9.5,33.2c0,31.8,15.7,56.1,36.6,63.8
	c-7.1,0.8-14.6,0.5-22.3-1l-0.2,0.5c2.2,0.8,9.8,4,21.3,4c26.1,0,43.8-16.2,50.9-28.5L109.6,90.1 M111.9,85.9
	c1.6-32.5-26.5-69.1-64.7-73.6l0.1-0.5c37.7,0,66.6,34.9,66.6,62.4c0,5.7-0.5,9.3-1.3,11.9L111.9,85.9"/>
<path class="st1" d="M64.6,9.6c0,10-19.2,22.2-35.2,22.2c-7.1,0-10.9-2.8-10.9-7.4c0-10.1,19.4-22.1,34.5-22.1
	C62.7,2.2,64.6,7.2,64.6,9.6 M56.7,0.4c-19.8,0-43,14.3-43,27.3c0,5,4.6,9.3,14.2,9.3C50,37,70.7,21.8,70.7,9.9
	C70.7,3.7,64.7,0.4,56.7,0.4"/>
<g>
	<path class="st2" d="M5.8,33.7c-0.6,1-2.8,5.3-2.8,9.8c0,8.3,8.4,16,23.8,16c29.6,0,63.9-21.8,63.9-42c0-9.1-8.6-14-14.6-15L76,2.8
		c1.9,0.6,8.7,3.7,8.7,11.8c0,16.1-30.2,38.1-60.4,38.1c-11.5,0-18.8-5.7-18.8-14c0-2.6,0.6-4.3,0.7-4.8L5.8,33.7"/>
	<path class="st3" d="M102.9,19c0.8,0.6,5.7,4.7,5.7,12.4c0,26.2-41.1,52-77.4,52C9.5,83.4-0.4,72.7,0,63.2h0.4
		c0.8,4.9,7.9,13.8,26.8,13.8c36.4,0,77-26.7,77-50.1c0-4-1.1-6.5-1.7-7.6L102.9,19"/>
</g>
<path class="st4" d="M116.6,43.5c0.2,0.6,1.1,3.1,1.1,7c0,29.2-41.6,54.1-77.8,54.1c-18.6,0-28.3-9-30.4-12.7l0.3-0.2
	c5.1,4.5,15.3,7.9,27.1,7.9c32,0,79.6-24.3,79.2-56L116.6,43.5"/>
</svg>
