<?xml version="1.0" encoding="utf-8"?>
<!-- Generator: Adobe Illustrator 19.0.0, SVG Export Plug-In . SVG Version: 6.00 Build 0)  -->
<svg version="1.1" id="Layer_1" xmlns="http://www.w3.org/2000/svg" xmlns:xlink="http://www.w3.org/1999/xlink" x="0px" y="0px"
	 viewBox="0 0 523.3 72.5" style="enable-background:new 0 0 523.3 72.5;" xml:space="preserve">
<style type="text/css">
	.st0{fill:#28458E;}
</style>
<path class="st0" d="M0,70.1h24.1V49.1h25.8C66.9,49.1,73.1,39,73.1,26c0-15.1-6.3-23.6-23.4-23.6H0V70.1 M24.1,18.3h15.5
	c6.1,0,8.4,2.1,8.4,7.2c0,4.9-2.3,7-8.4,7H24.1V18.3"/>
<polyline class="st0" points="81,2.4 145.9,2.4 145.9,18.9 105.1,18.9 105.1,28 143,28 143,44.5 105.1,44.5 105.1,53.6 145.9,53.6 
	145.9,70.1 81,70.1 81,2.4 "/>
<path class="st0" d="M155.9,70.1H180V49.1h25.8C222.9,49.1,229,39,229,26c0-15.1-6.3-23.6-23.4-23.6h-49.7V70.1 M180,18.3h15.5
	c6.1,0,8.4,2.1,8.4,7.2c0,4.9-2.3,7-8.4,7H180V18.3"/>
<path class="st0" d="M252.3,41.4c-11.8-2-16.6-9.6-16.6-19.1C235.7,4.7,251.2,0,271,0c27.2,0,38.3,7.9,39.2,22.2h-28
	c0-2.8-1.5-4.5-3.7-5.4c-2.1-1-4.9-1.4-7.5-1.4c-7.2,0-9.6,2-9.6,4.8c0,1.9,0.8,3.1,3.2,3.5l28.8,4.7c12.1,2,19.6,8.3,19.6,19.7
	c0,16.5-12.1,24.3-39.2,24.3c-18.5,0-38.8-2.8-38.8-22.8h29c0.1,2.3,0.9,3.8,2.6,4.8c1.8,1,4.4,1.4,8.2,1.4c7.5,0,9.6-2.3,9.6-5.5
	c0-2-1.1-4-4.4-4.5L252.3,41.4"/>
<rect x="320.7" y="2.4" class="st0" width="24.1" height="67.8"/>
<path class="st0" d="M434.1,43.7c-1.5,8.9-4.3,16.1-10.2,21.1c-5.9,4.9-15.1,7.7-29.8,7.7c-14.6,0-41.7-1.1-41.7-36.2
	C352.3,1.1,379.4,0,394,0c14.5,0,36.9,2.1,40.1,28.9h-27.2c-0.7-4.8-3.6-11.9-12.9-11.9c-9.8,0-16,5.4-16,19.2
	c0,13.8,6.1,19.2,14.9,19.2c7.6,0,12.1-3.5,14.1-11.7H434.1"/>
<path class="st0" d="M440,36.2c0,35.1,27.1,36.2,41.7,36.2c14.6,0,41.7-1.1,41.7-36.2C523.3,1.1,496.2,0,481.6,0
	C467,0,440,1.1,440,36.2 M465.6,36.2c0-13.8,6.2-19.2,16.1-19.2c9.8,0,16,5.4,16,19.2c0,13.8-6.2,19.2-16,19.2
	C471.8,55.4,465.6,50,465.6,36.2"/>
</svg>
